<svg width="67" height="67" viewBox="0 0 67 67" fill="none" xmlns="http://www.w3.org/2000/svg">
<path d="M8.48123 37.5724L8.26407 36.5402L5.69248 39.2969L3.28527 37.7822L3.51901 38.8933L6.04166 40.4586L3.94127 40.9005L4.11771 41.7392L9.13572 40.6836L8.95928 39.8449L7.16713 40.2219L6.41679 39.7509L8.48123 37.5724Z" fill="#161148"/>
<path d="M3.11238 36.521L3.99876 36.4501L3.92844 35.571L3.04205 35.6419L3.11238 36.521ZM8.2959 36.0694L8.23202 35.2709L4.53997 35.5663L4.60385 36.3648L8.2959 36.0694Z" fill="#161148"/>
<path d="M8.21747 34.2791L8.21301 33.4807L3.02664 33.5096L3.0311 34.3081L8.21747 34.2791Z" fill="#161148"/>
<path d="M8.22569 32.492L8.28159 31.6935L3.09513 31.3305L3.03924 32.1289L8.22569 32.492Z" fill="#161148"/>
<path d="M8.63675 29.5159C8.77731 28.6927 8.38721 28.0613 7.75898 27.954C6.26424 27.6988 6.44965 29.8336 5.74922 29.714C5.51092 29.6733 5.41071 29.4332 5.4699 29.0866C5.52662 28.7544 5.78676 28.4496 6.16384 28.4174L6.00041 27.7206C5.43893 27.7882 4.97924 28.3043 4.8621 28.9903C4.72771 29.7773 5.06867 30.3483 5.63912 30.4458C7.01833 30.6813 6.85212 28.5646 7.63921 28.699C7.89916 28.7434 8.07264 29.0331 8.00852 29.4086C7.92221 29.9141 7.54918 30.1402 7.13828 30.1964L7.30171 30.8931C7.84998 30.8158 8.48508 30.4041 8.63675 29.5159Z" fill="#161148"/>
<path d="M10.3783 23.7334C10.6455 23.1227 10.6178 22.4549 10.2957 22.0581L10.9266 22.3341L11.2378 21.6227L8.76135 20.5392L7.78357 22.7741L8.43457 23.0589L9.09229 21.5556C9.77936 21.9041 10.0394 22.6256 9.69881 23.4041C9.31415 24.2833 8.42742 24.6469 7.32677 24.1654C6.22612 23.6838 5.88469 22.7828 6.27228 21.897C6.57178 21.2124 7.17538 20.8928 7.84567 21.0421L8.02521 20.1931C6.99964 19.9603 6.06928 20.4968 5.59066 21.5907C5.06507 22.7921 5.37336 24.2623 6.97735 24.964C8.58135 25.6658 9.86154 24.9146 10.3783 23.7334Z" fill="#161148"/>
<path d="M11.9128 17.0445C11.1649 16.5399 10.0947 16.5787 9.4301 17.5637C8.77374 18.5365 9.17488 19.5681 10.0018 20.126C10.8287 20.6839 11.9559 20.6393 12.6123 19.6665C13.0964 18.949 13.1087 18.1964 12.6297 17.6343L12.049 18.1539C12.3301 18.4586 12.3258 18.8715 12.0551 19.2728C11.7269 19.7592 11.1688 19.8782 10.5988 19.5821L12.1782 17.2412C12.1276 17.1982 12.004 17.106 11.9128 17.0445ZM10.1147 19.2112C9.7243 18.8063 9.66994 18.336 9.953 17.9165C10.2812 17.4301 10.7637 17.3575 11.2059 17.5939L10.1147 19.2112Z" fill="#161148"/>
<path d="M13.4171 14.0303L12.8769 13.481C12.7705 13.5328 12.646 13.6375 12.5525 13.7405C12.2522 14.0715 12.1662 14.6462 12.3588 15.088L11.8379 14.6155L11.3015 15.2069L14.0361 17.6874L14.5726 17.096L13.5525 16.1707C12.7061 15.403 12.6679 14.7255 13.0321 14.3239C13.1453 14.1991 13.2851 14.0886 13.4171 14.0303Z" fill="#161148"/>
<path d="M15.8166 15.5876L16.452 15.104L15.3205 13.6177C14.8945 13.0581 14.8479 12.4768 15.285 12.144C15.6581 11.86 16.0485 11.9495 16.328 12.3167L17.7168 14.1411L18.3463 13.6619L17.2149 12.1756C16.7845 11.6102 16.7422 11.0347 17.1794 10.7019C17.5524 10.4179 17.9486 10.503 18.2282 10.8702L19.617 12.6946L20.2523 12.211L18.7437 10.2292C18.2911 9.63466 17.5725 9.53724 16.943 10.0165C16.4825 10.367 16.3325 10.8955 16.4191 11.3359C16.0083 11.0502 15.5149 11.1036 15.0428 11.463C14.6173 11.7869 14.5061 12.2213 14.5928 12.6617L14.2157 12.1663L13.5803 12.6499L15.8166 15.5876Z" fill="#161148"/>
<path d="M22.1459 11.417C22.8975 11.0495 23.1826 10.3628 22.9022 9.78926C22.235 8.42451 20.6077 9.82456 20.2951 9.18505C20.1887 8.96748 20.3253 8.74552 20.6417 8.5908C20.945 8.44254 21.3451 8.47565 21.592 8.76339L22.0629 8.22277C21.6793 7.8058 20.9907 7.73401 20.3644 8.04022C19.6457 8.39155 19.381 9.00294 19.6356 9.52378C20.2513 10.783 21.875 9.40921 22.2264 10.1278C22.3424 10.3652 22.2084 10.6758 21.8655 10.8434C21.404 11.069 21.0018 10.898 20.7157 10.5968L20.2448 11.1374C20.6285 11.538 21.335 11.8134 22.1459 11.417Z" fill="#161148"/>
<path d="M24.2539 4.95314L24.5042 5.80346L25.3475 5.55527L25.0972 4.70495L24.2539 4.95314ZM25.7534 9.91824L26.5194 9.6928L25.477 6.15096L24.711 6.3764L25.7534 9.91824Z" fill="#161148"/>
<path d="M27.374 9.38326L28.1645 9.24752L27.8892 7.64477C27.7386 6.76725 28.0188 6.18158 28.6352 6.07572C29.0993 5.99602 29.437 6.26655 29.5154 6.72344L29.8978 8.94988L30.6882 8.81414L30.2748 6.4064C30.1391 5.6159 29.5067 5.19439 28.7307 5.32764C28.1941 5.4198 27.8208 5.76761 27.6414 6.20157L27.5368 5.59239L26.7463 5.72813L27.374 9.38326Z" fill="#161148"/>
<path d="M34.9741 8.92046C36.1211 9.00549 36.9174 8.46953 36.9835 7.57827C37.1362 5.51813 34.2778 6.02609 34.3542 4.99602C34.3834 4.60152 34.7368 4.39266 35.292 4.43382C35.8765 4.47715 36.2539 4.83569 36.3177 5.36196L37.1081 5.10469C37.0188 4.32679 36.3043 3.75962 35.3473 3.68867C34.3464 3.61447 33.5523 4.1212 33.4921 4.93211C33.3557 6.77308 36.2029 6.31572 36.113 7.52843C36.0805 7.96675 35.6649 8.22242 35.0586 8.17747C34.4449 8.13197 33.9728 7.66358 33.9339 6.99959L33.1343 7.18272C33.2111 8.12865 33.9806 8.8468 34.9741 8.92046Z" fill="#161148"/>
<path d="M41.2591 7.99981C41.4724 7.12437 41.0649 6.13542 39.9119 5.85455C38.7731 5.57716 37.946 6.31062 37.7102 7.27858C37.4744 8.24654 37.9071 9.28687 39.0459 9.56426C39.8858 9.76884 40.5949 9.51937 40.9553 8.87579L40.2673 8.51217C40.0794 8.88108 39.6911 9.02024 39.2214 8.90581C38.652 8.76712 38.347 8.28569 38.4267 7.64914L41.1669 8.31662C41.1896 8.2543 41.2331 8.10657 41.2591 7.99981ZM38.6062 7.06707C38.8501 6.561 39.2717 6.34702 39.7628 6.46665C40.3321 6.60535 40.5675 7.03212 40.4994 7.52823L38.6062 7.06707Z" fill="#161148"/>
<path d="M42.8703 10.8486C43.6992 11.2 44.4656 11.024 44.9071 10.3764L44.2459 9.92914C43.9965 10.2925 43.5932 10.3998 43.1619 10.217C42.5823 9.97126 42.3839 9.37035 42.6696 8.6964C42.9553 8.02246 43.5184 7.74438 44.1047 7.99293C44.536 8.17578 44.7414 8.57289 44.6459 8.98561L45.4203 9.14692C45.6028 8.39745 45.1916 7.69838 44.3559 7.34411C43.3382 6.91272 42.3508 7.32895 41.908 8.37357C41.4652 9.41818 41.8526 10.4172 42.8703 10.8486Z" fill="#161148"/>
<path d="M46.4226 12.6698C47.3628 13.256 48.4647 13.0005 49.051 12.0603C49.6373 11.1201 49.3817 10.0182 48.4415 9.4319C47.4951 8.84176 46.3994 9.10115 45.8131 10.0414C45.2269 10.9816 45.4762 12.0796 46.4226 12.6698ZM46.7914 12.0782C46.231 11.7288 46.1215 11.0724 46.4981 10.4685C46.8747 9.86447 47.5123 9.67401 48.0727 10.0234C48.6269 10.369 48.7427 11.0292 48.3661 11.6332C47.9895 12.2372 47.3456 12.4238 46.7914 12.0782Z" fill="#161148"/>
<path d="M48.5281 14.0297L49.1236 14.5616L50.2021 13.3542C50.7925 12.6931 51.4225 12.5486 51.8869 12.9634C52.2366 13.2757 52.2349 13.7064 51.9275 14.0506L50.4294 15.7279L51.0249 16.2598L52.645 14.4459C53.1769 13.8504 53.1136 13.0965 52.529 12.5744C52.1247 12.2133 51.6224 12.1378 51.1732 12.267L51.5831 11.808L50.9875 11.2761L48.5281 14.0297Z" fill="#161148"/>
<path d="M52.5109 18.101C52.8164 18.4852 53.2665 18.6982 53.6167 18.6443L53.2498 18.9361L53.7467 19.5611L57.8062 16.3331L57.3093 15.7081L55.7784 16.9255C55.8824 16.562 55.7797 16.0915 55.4833 15.7188C54.7903 14.8472 53.7744 14.8408 52.9029 15.5338C52.0314 16.2268 51.8088 17.218 52.5109 18.101ZM53.1194 17.7482C52.7182 17.2436 52.8322 16.6101 53.3999 16.1588C53.9732 15.7028 54.6104 15.739 55.0116 16.2436C55.4128 16.7482 55.3045 17.3771 54.7311 17.833C54.1635 18.2844 53.5206 18.2527 53.1194 17.7482Z" fill="#161148"/>
<path d="M54.7967 21.4122C55.2143 22.1387 55.9197 22.3777 56.4741 22.059C57.7934 21.3008 56.2852 19.7683 56.9034 19.413C57.1137 19.2921 57.3447 19.4137 57.5205 19.7196C57.689 20.0128 57.6827 20.4149 57.4117 20.6809L57.9835 21.1153C58.3745 20.704 58.4002 20.011 58.0522 19.4056C57.653 18.7109 57.0242 18.4872 56.5207 18.7766C55.3035 19.4762 56.7852 21.007 56.0905 21.4062C55.8611 21.5381 55.5417 21.4249 55.3512 21.0935C55.0948 20.6474 55.2388 20.234 55.5207 19.9279L54.9488 19.4935C54.5742 19.9038 54.3462 20.6283 54.7967 21.4122Z" fill="#161148"/>
<path d="M57.7836 29.6501L58.0107 30.6802L60.5557 27.8989L62.9773 29.3905L62.7329 28.2816L60.1954 26.7406L62.2914 26.2786L62.107 25.4416L57.0993 26.5453L57.2838 27.3823L59.0722 26.9881L59.8271 27.4519L57.7836 29.6501Z" fill="#161148"/>
<path d="M63.1738 30.6474L62.2874 30.7272L62.3665 31.6062L63.2529 31.5265L63.1738 30.6474ZM57.9907 31.1508L58.0625 31.9493L61.7546 31.617L61.6827 30.8185L57.9907 31.1508Z" fill="#161148"/>
<path d="M58.0794 32.9373L58.0917 33.7357L63.2775 33.6561L63.2653 32.8577L58.0794 32.9373Z" fill="#161148"/>
<path d="M58.0708 34.7259L58.0255 35.5231L63.2036 35.8171L63.2489 35.0199L58.0708 34.7259Z" fill="#161148"/>
<path d="M57.7072 37.7084C57.5745 38.5329 57.9707 39.1605 58.5999 39.2618C60.097 39.5026 59.8911 37.3697 60.5927 37.4826C60.8314 37.521 60.9339 37.7601 60.878 38.1072C60.8245 38.4399 60.5673 38.7473 60.1905 38.7831L60.3606 39.4783C60.9215 39.4053 61.3762 38.8848 61.4867 38.1978C61.6135 37.4094 61.2671 36.8417 60.6958 36.7498C59.3144 36.5275 59.5009 38.6425 58.7125 38.5157C58.4522 38.4738 58.2759 38.1857 58.3364 37.8096C58.4179 37.3034 58.7887 37.0737 59.1991 37.0135L59.029 36.3184C58.4815 36.401 57.8503 36.8188 57.7072 37.7084Z" fill="#161148"/>
<path d="M56.0203 43.5084C55.7589 44.1217 55.7928 44.7892 56.1187 45.1829L55.4853 44.9129L55.1807 45.6272L57.6673 46.6872L58.624 44.4433L57.9703 44.1646L57.3268 45.6741C56.6365 45.332 56.3696 44.613 56.7029 43.8313C57.0792 42.9485 57.9625 42.5765 59.0677 43.0477C60.1728 43.5189 60.5227 44.4166 60.1435 45.3061C59.8504 45.9934 59.2499 46.3187 58.5782 46.1757L58.4067 47.0264C59.4344 47.2495 60.3597 46.7043 60.8279 45.6059C61.3422 44.3996 61.0201 42.9324 59.4095 42.2458C57.799 41.5592 56.5259 42.3224 56.0203 43.5084Z" fill="#161148"/>
<path d="M55.3492 50.7121C56.0971 51.2076 57.161 51.1602 57.8137 50.1752C58.4584 49.2023 58.0509 48.1799 57.224 47.6319C56.3971 47.084 55.2765 47.1377 54.6319 48.1105C54.1565 48.8279 54.1504 49.5765 54.6314 50.1314L55.2045 49.6099C54.9225 49.3093 54.9234 48.8986 55.1893 48.4973C55.5116 48.0109 56.0656 47.888 56.6348 48.1777L55.0836 50.5186C55.1343 50.5609 55.258 50.6516 55.3492 50.7121ZM57.1193 48.5425C57.5109 48.942 57.5688 49.4091 57.2908 49.8287C56.9685 50.3151 56.4893 50.3913 56.0476 50.1599L57.1193 48.5425Z" fill="#161148"/>
<path d="M53.0783 53.2333L53.6239 53.7773C53.7297 53.7244 53.8532 53.6186 53.9457 53.5146C54.2427 53.1807 54.3232 52.6052 54.1262 52.1653L54.6517 52.6327L55.1823 52.0361L52.4236 49.5824L51.8929 50.179L52.922 51.0943C53.7759 51.8538 53.8207 52.5309 53.4604 52.9359C53.3485 53.0618 53.2097 53.1737 53.0783 53.2333Z" fill="#161148"/>
<path d="M50.6598 51.7053L50.0292 52.1952L51.1752 53.6704C51.6066 54.2257 51.6589 54.8066 51.225 55.1436C50.8548 55.4312 50.4636 55.3456 50.1805 54.9811L48.7739 53.1703L48.1491 53.6557L49.295 55.1309C49.7309 55.692 49.7788 56.2671 49.3449 56.6041C48.9746 56.8918 48.5776 56.8106 48.2945 56.4461L46.8879 54.6353L46.2573 55.1252L47.7853 57.0921C48.2436 57.6822 48.9632 57.7726 49.588 57.2873C50.045 56.9322 50.1899 56.4023 50.0989 55.9628C50.5125 56.2444 51.0053 56.1863 51.4739 55.8223C51.8962 55.4942 52.0032 55.0587 51.9122 54.6191L52.2942 55.1109L52.9247 54.621L50.6598 51.7053Z" fill="#161148"/>
<path d="M44.3668 55.9336C43.6217 56.3108 43.3467 57.0001 43.6345 57.5687C44.3194 58.9216 45.9242 57.5016 46.2451 58.1356C46.3543 58.3513 46.2211 58.5747 45.9074 58.7335C45.6067 58.8857 45.2069 58.8582 44.9565 58.5745L44.494 59.1206C44.8826 59.5315 45.5709 59.5936 46.1918 59.2792C46.9042 58.9186 47.16 58.3047 46.8986 57.7884C46.2667 56.54 44.665 57.9338 44.3044 57.2214C44.1853 56.9861 44.3148 56.6742 44.6546 56.5022C45.1121 56.2706 45.5159 56.4357 45.8057 56.7324L46.2682 56.1862C45.8796 55.7917 45.1707 55.5266 44.3668 55.9336Z" fill="#161148"/>
<path d="M42.3334 62.4536L42.0763 61.6027L41.2324 61.8576L41.4895 62.7085L42.3334 62.4536ZM40.7941 57.4852L40.0276 57.7168L41.0983 61.2612L41.8648 61.0296L40.7941 57.4852Z" fill="#161148"/>
<path d="M39.1588 57.9876L38.3727 58.128L38.6575 59.7217C38.8134 60.5943 38.5384 61.1792 37.9254 61.2887C37.4639 61.3712 37.1259 61.1041 37.0448 60.6498L36.6492 58.436L35.8632 58.5764L36.291 60.9706C36.4314 61.7566 37.0637 62.172 37.8353 62.0341C38.369 61.9388 38.7383 61.59 38.9139 61.1568L39.0221 61.7625L39.8081 61.6221L39.1588 57.9876Z" fill="#161148"/>
<path d="M31.5689 58.5587C30.4212 58.4849 29.6301 59.0286 29.5728 59.9204C29.4402 61.982 32.2934 61.4461 32.2272 62.4769C32.2018 62.8716 31.8504 63.0839 31.2948 63.0482C30.71 63.0106 30.3291 62.6558 30.2601 62.1301L29.4723 62.3951C29.5692 63.1721 30.2892 63.7323 31.2469 63.7939C32.2484 63.8583 33.0376 63.3438 33.0898 62.5323C33.2083 60.6901 30.3656 61.1753 30.4436 59.9618C30.4719 59.5231 30.885 59.2634 31.4917 59.3024C32.1058 59.3419 32.5825 59.8057 32.6279 60.4693L33.4256 60.2783C33.3396 59.3332 32.5631 58.6226 31.5689 58.5587Z" fill="#161148"/>
<path d="M25.0845 60.4715C24.8773 61.3455 25.2895 62.3289 26.4407 62.6018C27.5776 62.8714 28.3976 62.1352 28.6267 61.1688C28.8559 60.2024 28.4182 59.168 27.2813 58.8984C26.4428 58.6996 25.7373 58.9526 25.3821 59.5964L26.0701 59.9547C26.2552 59.5857 26.6414 59.4447 27.1104 59.5559C27.6788 59.6906 27.9858 60.1687 27.9102 60.8038L25.1745 60.1551C25.1522 60.2174 25.1098 60.3649 25.0845 60.4715ZM27.7349 61.3851C27.4948 61.8911 27.0759 62.107 26.5856 61.9907C26.0171 61.8559 25.7799 61.4319 25.8447 60.9369L27.7349 61.3851Z" fill="#161148"/>
<path d="M23.6501 56.7172C22.8162 56.3758 22.0516 56.5615 21.6178 57.2151L22.2849 57.6544C22.53 57.2877 22.9322 57.1753 23.3661 57.3529C23.9492 57.5915 24.1552 58.1904 23.8777 58.8683C23.6002 59.5463 23.0402 59.8316 22.4504 59.5901C22.0165 59.4125 21.8061 59.0177 21.8965 58.6035L21.1195 58.4518C20.9462 59.204 21.3664 59.8984 22.2071 60.2425C23.2308 60.6616 24.2137 60.2327 24.6438 59.1819C25.0739 58.1311 24.6738 57.1362 23.6501 56.7172Z" fill="#161148"/>
<path d="M20.1002 54.9044C19.1581 54.3246 18.0596 54.5861 17.4798 55.5282C16.9001 56.4702 17.1616 57.5687 18.1036 58.1485C19.0519 58.7321 20.1442 58.4668 20.7239 57.5247C21.3037 56.5827 21.0484 55.488 20.1002 54.9044ZM19.7354 55.4971C20.2969 55.8426 20.4101 56.4972 20.0377 57.1024C19.6652 57.7075 19.0298 57.9014 18.4684 57.5558C17.9131 57.2141 17.7936 56.5557 18.1661 55.9505C18.5385 55.3454 19.1802 55.1554 19.7354 55.4971Z" fill="#161148"/>
<path d="M17.9729 53.5725L17.3741 53.0455L16.3056 54.2597C15.7206 54.9245 15.0923 55.0735 14.6253 54.6625C14.2736 54.3531 14.2721 53.9228 14.5767 53.5767L16.061 51.89L15.4621 51.363L13.857 53.187C13.33 53.7859 13.3988 54.5386 13.9866 55.0559C14.3932 55.4137 14.8956 55.4853 15.3435 55.353L14.9373 55.8145L15.5362 56.3415L17.9729 53.5725Z" fill="#161148"/>
<path d="M13.9284 49.55C13.6192 49.1671 13.1662 48.9571 12.8155 49.0138L13.1812 48.7184L12.6781 48.0956L8.63271 51.363L9.13575 51.9859L10.6614 50.7536C10.5598 51.1189 10.6664 51.5898 10.9664 51.9612C11.6679 52.8298 12.6865 52.8284 13.555 52.1269C14.4235 51.4255 14.6391 50.4299 13.9284 49.55ZM13.321 49.9084C13.7271 50.4112 13.6176 51.0472 13.052 51.5041C12.4806 51.9656 11.8415 51.9342 11.4354 51.4314C11.0293 50.9286 11.133 50.2972 11.7044 49.8357C12.27 49.3788 12.9148 49.4056 13.321 49.9084Z" fill="#161148"/>
<path d="M11.6545 46.2483C11.2337 45.527 10.5292 45.2935 9.97873 45.6146C8.66896 46.3788 10.1819 47.8962 9.56813 48.2543C9.35932 48.3761 9.12836 48.2565 8.95116 47.9527C8.78136 47.6617 8.78502 47.2609 9.0534 46.9941L8.48073 46.5649C8.09371 46.9773 8.07266 47.6681 8.42336 48.2692C8.82573 48.9588 9.45376 49.1776 9.95362 48.886C11.1622 48.1809 9.6756 46.665 10.3653 46.2627C10.5931 46.1298 10.9121 46.2405 11.104 46.5695C11.3625 47.0124 11.2217 47.4253 10.9428 47.7322L11.5154 48.1614C11.8861 47.7501 12.1086 47.0266 11.6545 46.2483Z" fill="#161148"/>
</svg>
