<svg width="160" height="160" viewBox="0 0 160 160" fill="none" xmlns="http://www.w3.org/2000/svg">
<path d="M70.495 83.9979C71.1851 83.2239 72.9847 82.524 74.7971 82.337C79.4702 81.8532 80.7666 83.6883 83.8465 83.627C85.6913 83.6188 87.4795 82.9894 88.9226 81.8403" stroke="#161148" stroke-width="1.3803" stroke-miterlimit="10" stroke-linecap="round"/>
<path d="M83.7835 73.6328V71.9751C83.786 71.7936 83.8243 71.6143 83.8963 71.4476C83.9682 71.2809 84.0723 71.13 84.2026 71.0036C84.3329 70.8771 84.4869 70.7777 84.6557 70.7109C84.8245 70.644 85.0048 70.6112 85.1864 70.6142V70.6142C85.5514 70.6176 85.9028 70.4764 86.1639 70.2213C86.425 69.9663 86.5745 69.6182 86.5796 69.2532V65.8799C86.5753 65.5143 86.4263 65.1654 86.1651 64.9097C85.9039 64.6539 85.5519 64.5122 85.1864 64.5157H74.2214C73.8559 64.5122 73.5039 64.6539 73.2427 64.9097C72.9815 65.1654 72.8324 65.5143 72.8282 65.8799V69.2532C72.8333 69.6182 72.9827 69.9663 73.2438 70.2213C73.5049 70.4764 73.8564 70.6176 74.2214 70.6142V70.6142C74.5869 70.6099 74.9392 70.7507 75.201 71.0059C75.4628 71.261 75.6127 71.6096 75.6178 71.9751V73.6328C75.6076 74.4593 75.2697 75.248 74.6782 75.8255C74.0868 76.403 73.2903 76.7221 72.4638 76.7126H71.5769C71.0915 76.7071 70.6098 76.7972 70.1593 76.9779C69.7088 77.1585 69.2983 77.4261 68.9512 77.7654C68.6041 78.1047 68.3272 78.5091 68.1364 78.9554C67.9456 79.4017 67.8446 79.8812 67.8391 80.3666V96.2271C67.8446 96.7125 67.9456 97.192 68.1364 97.6383C68.3272 98.0846 68.6041 98.489 68.9512 98.8283C69.2983 99.1676 69.7088 99.4352 70.1593 99.6158C70.6098 99.7965 71.0915 99.8866 71.5769 99.881H87.818C88.3033 99.8866 88.785 99.7965 89.2356 99.6158C89.6861 99.4352 90.0966 99.1676 90.4437 98.8283C90.7908 98.489 91.0676 98.0846 91.2584 97.6383C91.4493 97.192 91.5503 96.7125 91.5558 96.2271V80.3666C91.5503 79.8812 91.4493 79.4017 91.2584 78.9554C91.0676 78.5091 90.7908 78.1047 90.4437 77.7654C90.0966 77.4261 89.6861 77.1585 89.2356 76.9779C88.785 76.7972 88.3033 76.7071 87.818 76.7126H86.9311C86.1057 76.7204 85.3108 76.4005 84.7208 75.8232C84.1308 75.2459 83.7937 74.4582 83.7835 73.6328V73.6328Z" stroke="#161148" stroke-width="1.3803" stroke-miterlimit="10" stroke-linecap="round"/>
<path d="M83.1711 64.2124H76.3083L75.9406 60.6649C75.9291 60.5445 75.9434 60.4231 75.9824 60.3088C76.0215 60.1944 76.0844 60.0896 76.1671 60.0014C76.2498 59.9133 76.3503 59.8437 76.4619 59.7974C76.5736 59.7511 76.6938 59.7291 76.8146 59.7328L82.8131 59.8199C82.9348 59.8197 83.0552 59.8456 83.1661 59.8958C83.277 59.9461 83.3758 60.0196 83.4559 60.1113C83.536 60.203 83.5954 60.3108 83.6303 60.4274C83.6652 60.544 83.6747 60.6668 83.6581 60.7874L83.1711 64.2124Z" stroke="#161148" stroke-width="1.3803" stroke-miterlimit="10" stroke-linecap="round"/>
<path d="M76.7375 67.0244C76.7375 67.0244 76.7956 67.4437 76.8182 67.5823C76.9181 68.1725 76.8762 68.5498 77.6631 68.5498L81.5105 68.5789" stroke="#161148" stroke-width="1.3803" stroke-miterlimit="10" stroke-linecap="round"/>
</svg>
