<svg width="160" height="160" viewBox="0 0 160 160" fill="none" xmlns="http://www.w3.org/2000/svg">
<path d="M67.461 47.0772C66.6296 44.5508 67.1216 41.7402 68.607 39.041L63.5672 40.7258L63.1363 39.4137L69.8732 37.1621L70.2622 38.3417C68.7863 40.9064 68.2524 43.6345 69.1486 46.3548L69.2477 46.6564L67.5163 47.2347L67.461 47.0772Z" fill="#161148"/>
<path d="M72.0756 41.097C71.7762 38.2595 73.1549 36.3153 75.7062 36.0425C78.2709 35.7677 80.01 37.3796 80.3093 40.2171C80.6087 43.0547 79.2453 45.0104 76.6787 45.2851C74.1273 45.5579 72.375 43.9345 72.0756 41.097ZM78.6332 40.3977C78.412 38.2921 77.3938 37.1644 75.8435 37.3296C74.2913 37.4949 73.5324 38.8128 73.7536 40.9183C73.9748 43.0239 74.9931 44.1651 76.5452 43.9979C78.0974 43.8327 78.8563 42.5033 78.6332 40.3977Z" fill="#161148"/>
<path d="M82.9846 36.7471C83.2287 36.4551 83.5376 36.2457 83.9075 36.1189C84.2775 35.994 84.6741 35.9671 85.0955 36.0382C85.5169 36.1093 85.883 36.2668 86.19 36.5069C86.4989 36.749 86.7201 37.0468 86.8555 37.4041C86.9909 37.7615 87.0252 38.1438 86.9566 38.553C86.8879 38.9622 86.7316 39.3099 86.4875 39.5981C86.2434 39.8862 85.9364 40.0937 85.5665 40.2186C85.1966 40.3435 84.7999 40.3704 84.3785 40.2993C83.9571 40.2282 83.591 40.0707 83.284 39.8305C82.977 39.5904 82.7539 39.2926 82.6166 38.9391C82.4793 38.5856 82.4469 38.2052 82.5155 37.796C82.5842 37.3907 82.7405 37.0391 82.9846 36.7471ZM82.8302 44.7314L90.2306 36.9911L91.5578 37.2178L84.144 44.9562L82.8302 44.7314ZM85.6523 37.5156C85.4807 37.2677 85.2385 37.1179 84.9239 37.0641C84.6169 37.0122 84.3442 37.0737 84.1001 37.2524C83.856 37.431 83.7092 37.6769 83.6558 37.9939C83.6024 38.3109 83.6615 38.5933 83.8332 38.8411C84.0048 39.089 84.2431 39.2388 84.5482 39.2907C84.8629 39.3445 85.1413 39.283 85.3834 39.1063C85.6256 38.9295 85.7743 38.6817 85.8277 38.3647C85.8811 38.0458 85.822 37.7634 85.6523 37.5156ZM87.8776 42.3511C88.1217 42.0591 88.4306 41.8497 88.8005 41.7248C89.1704 41.5999 89.567 41.573 89.9885 41.6441C90.4099 41.7171 90.776 41.8727 91.083 42.1148C91.3919 42.3568 91.6131 42.6546 91.7485 43.012C91.8839 43.3693 91.9182 43.7535 91.8495 44.1608C91.7828 44.5604 91.6264 44.9062 91.3824 45.2001C91.1364 45.4922 90.8294 45.7016 90.4595 45.8264C90.0895 45.9513 89.6929 45.9782 89.2715 45.9071C88.8501 45.8341 88.484 45.6785 88.177 45.4364C87.868 45.1963 87.6469 44.8966 87.5115 44.5393C87.3761 44.1819 87.3418 43.8035 87.4085 43.4019C87.4752 42.9947 87.6316 42.645 87.8776 42.3511ZM90.5319 43.1138C90.3622 42.8621 90.1238 42.7103 89.8168 42.6565C89.5098 42.6047 89.2333 42.6681 88.9874 42.8487C88.7395 43.0292 88.5888 43.279 88.5373 43.5941C88.484 43.9111 88.5431 44.1915 88.7147 44.4355C88.8863 44.6795 89.1304 44.8274 89.4431 44.8812C89.7577 44.935 90.0342 44.8755 90.2707 44.7006C90.509 44.5277 90.6539 44.2818 90.7073 43.9648C90.7607 43.6498 90.7016 43.3654 90.5319 43.1138Z" fill="#161148"/>
<path d="M96.3268 46.4877C96.6281 45.9747 97.1009 45.6673 97.6844 45.6481C98.2222 45.6308 98.8495 45.7826 99.9345 46.2994L102.023 47.3253L102.093 47.2062C102.562 46.4108 102.288 45.7307 101.368 45.1813C100.459 44.6376 99.6943 44.6683 99.2309 45.26L97.7912 44.3994C98.6207 43.2889 100.207 43.2025 101.918 44.2245C103.834 45.3695 104.295 46.6471 103.373 48.2186L102.461 49.7671C101.981 50.5855 101.729 51.1119 101.569 51.6075L100.182 50.7795C100.295 50.4644 100.486 50.0917 100.68 49.7344C99.8716 50.2397 98.7771 50.1609 97.5643 49.4366C96.22 48.6355 95.7299 47.5039 96.3268 46.4877ZM101.41 48.4184L101.584 48.1245L99.6199 47.187C98.5921 46.7201 98.0982 46.7643 97.8027 47.2657C97.5147 47.7575 97.8027 48.3108 98.5807 48.7777C99.7267 49.4616 100.865 49.3444 101.41 48.4184Z" fill="#161148"/>
<path d="M103.916 53.7013L102.69 52.6677L108.542 45.6133L109.768 46.6469L103.916 53.7013Z" fill="#161148"/>
<path d="M107.312 52.3184C108.866 50.9506 110.775 51.2061 112.291 52.9524C113.567 54.4221 113.753 55.8918 112.823 57.1309L111.566 56.0474C112.106 55.3193 112.026 54.5143 111.347 53.7324C110.502 52.7584 109.419 52.6854 108.424 53.5614C107.419 54.4452 107.335 55.5633 108.18 56.5373C108.851 57.3115 109.614 57.4979 110.445 57.0867L111.271 58.4815C109.993 59.1866 108.477 58.7677 107.253 57.3557C105.769 55.6459 105.787 53.6613 107.312 52.3184Z" fill="#161148"/>
<path d="M112.79 58.8189C114.615 57.8219 116.454 58.5769 117.51 60.5384C118.572 62.5114 118.193 64.4652 116.368 65.4623C114.543 66.4593 112.71 65.7158 111.648 63.7428C110.59 61.7813 110.966 59.816 112.79 58.8189ZM115.582 64.0003C116.81 63.3298 117.09 62.252 116.471 61.1051C115.859 59.9678 114.81 59.6181 113.582 60.2886C112.365 60.9533 112.073 62.0369 112.686 63.1722C113.305 64.3211 114.364 64.6669 115.582 64.0003Z" fill="#161148"/>
<path d="M122.767 65.5781L123.188 67.1304L119.218 68.2255C120.271 68.4483 121.011 69.2033 121.329 70.3772C121.8 72.1139 121.034 73.3242 119.104 73.8563L115.801 74.767L115.38 73.2147L118.524 72.3482C119.775 72.0044 120.271 71.2359 119.964 70.1101C119.638 68.9113 118.66 68.3792 117.373 68.7346L114.386 69.5587L113.965 68.0065L122.767 65.5781Z" fill="#161148"/>
<path d="M119.091 75.5005C121.165 75.4218 122.481 76.9203 122.563 79.1507C122.647 81.3927 121.446 82.9738 119.371 83.0526C117.296 83.1313 115.981 81.6463 115.899 79.4024C115.817 77.1719 117.016 75.5793 119.091 75.5005ZM119.31 81.3927C120.706 81.3408 121.43 80.5013 121.383 79.1949C121.335 77.902 120.549 77.1201 119.154 77.1738C117.771 77.2257 117.033 78.0653 117.081 79.3582C117.13 80.6626 117.928 81.4446 119.31 81.3927Z" fill="#161148"/>
<path d="M115.75 85.9866L115.944 84.3882L125 85.5082L124.805 87.1066L115.75 85.9866Z" fill="#161148"/>
<path d="M115.025 93.4617L114.091 92.8853L114.629 91.6001L123.038 95.1696L122.416 96.6527L118.822 95.1254C119.344 95.8708 119.424 96.9505 118.965 98.0475C118.221 99.8226 116.492 100.464 114.671 99.692C112.838 98.9139 112.094 97.1676 112.848 95.3675C113.332 94.2148 114.154 93.5866 115.025 93.4617ZM115.321 98.1416C116.528 98.6546 117.586 98.278 118.078 97.0696C118.566 95.9016 118.187 94.818 117.085 94.3493L116.772 94.2167C115.67 93.7479 114.638 94.1917 114.15 95.3598C113.647 96.5643 114.093 97.621 115.321 98.1416Z" fill="#161148"/>
<path d="M112.84 99.9013C113.319 100.253 113.578 100.756 113.544 101.342C113.511 101.882 113.302 102.497 112.689 103.538L111.48 105.536L111.593 105.619C112.337 106.162 113.033 105.953 113.662 105.081C114.284 104.22 114.325 103.45 113.784 102.929L114.768 101.565C115.788 102.501 115.723 104.099 114.554 105.72C113.244 107.536 111.938 107.88 110.472 106.806L109.026 105.747C108.264 105.188 107.766 104.887 107.291 104.679L108.239 103.367C108.54 103.509 108.891 103.736 109.225 103.965C108.801 103.106 108.983 102.015 109.812 100.868C110.729 99.5939 111.894 99.2078 112.84 99.9013ZM110.458 104.819L110.733 105.021L111.843 103.138C112.4 102.151 112.403 101.651 111.934 101.308C111.477 100.971 110.901 101.21 110.369 101.947C109.583 103.033 109.593 104.185 110.458 104.819Z" fill="#161148"/>
<path d="M107.796 106.347L107.394 107.545C106.553 107.284 105.638 107.549 104.673 108.421C103.914 109.107 103.741 109.672 104.086 110.06C104.379 110.391 104.686 110.335 105.297 109.92L106.826 108.827C107.955 108.045 108.874 108.014 109.581 108.806C110.388 109.711 110.067 111.04 108.616 112.354C107.407 113.447 106.183 113.856 105.213 113.524L105.544 112.339C106.303 112.489 107.074 112.25 107.962 111.447C108.693 110.786 108.881 110.258 108.536 109.872C108.258 109.561 107.89 109.622 107.362 109.997L105.758 111.14C104.574 111.956 103.739 111.91 103.058 111.146C102.227 110.212 102.448 108.904 103.983 107.515C105.312 106.31 106.626 105.924 107.796 106.347Z" fill="#161148"/>
<path d="M96.4946 116.117L101.412 113.263C100.823 112.36 99.7705 112.196 98.6264 112.861C97.776 113.355 97.3317 114.052 97.3527 114.874L95.9721 115.001C95.9759 113.712 96.6776 112.602 98.0734 111.791C100.07 110.633 101.904 110.973 102.934 112.775C104.008 114.654 103.388 116.463 101.468 117.576C99.515 118.709 97.7874 118.379 96.7825 116.621L96.4946 116.117ZM98.4319 116.252C98.9525 117.164 99.9517 117.259 100.966 116.669C102.034 116.048 102.391 115.095 101.923 114.152L98.4014 116.196L98.4319 116.252Z" fill="#161148"/>
<path d="M95.4782 117.057C96.0446 118.962 95.1445 120.664 93.2892 121.224C92.2042 121.55 91.3003 121.427 90.5548 120.818L91.6493 124.497L90.1181 124.96L87.5 116.156L88.9702 115.712L89.3096 116.853C89.5422 115.869 90.2897 115.114 91.472 114.757C93.2682 114.215 94.9119 115.149 95.4782 117.057ZM89.855 118.555L89.9522 118.884C90.3031 120.061 91.3347 120.57 92.5512 120.203C93.7697 119.836 94.2655 118.853 93.8784 117.552C93.4951 116.265 92.5017 115.704 91.2832 116.073C90.1028 116.428 89.5193 117.425 89.855 118.555Z" fill="#161148"/>
<path d="M81.5297 126L79.9336 125.919L80.1396 121.777C79.6018 122.714 78.658 123.187 77.4509 123.127C75.6661 123.037 74.7642 121.925 74.8633 119.911L75.035 116.467L76.631 116.547L76.4689 119.827C76.4041 121.131 76.9742 121.846 78.1298 121.904C79.3616 121.965 80.1682 121.193 80.2349 119.852L80.3894 116.736L81.9854 116.816L81.5297 126Z" fill="#161148"/>
<path d="M73.6678 117.972C73.5057 118.544 73.1243 118.963 72.5656 119.13C72.0508 119.284 71.4063 119.297 70.2259 119.074L67.9473 118.615L67.9091 118.75C67.6555 119.639 68.0922 120.227 69.12 120.523C70.1363 120.817 70.8686 120.592 71.1698 119.9L72.7792 120.365C72.2567 121.653 70.7427 122.139 68.832 121.587C66.6907 120.969 65.9222 119.85 66.4218 118.096L66.9138 116.366C67.1731 115.451 67.2856 114.877 67.3142 114.358L68.8626 114.806C68.832 115.14 68.7424 115.549 68.6433 115.943C69.2992 115.249 70.3785 115.046 71.7324 115.436C73.2311 115.866 73.9901 116.838 73.6678 117.972ZM68.2657 117.401L68.1723 117.73L70.3079 118.135C71.4196 118.323 71.8868 118.154 72.0451 117.595C72.2014 117.046 71.7819 116.583 70.9124 116.331C69.631 115.962 68.5594 116.366 68.2657 117.401Z" fill="#161148"/>
<path d="M63.0257 119.374L61.6737 118.615L62.3297 117.429C61.3839 118.073 60.3409 118.084 59.2406 117.468C57.6789 116.592 57.3452 115.243 58.2815 113.549L60.0072 110.425L61.403 111.209L59.7936 114.123C59.1701 115.253 59.3684 116.09 60.3809 116.659C61.4811 117.276 62.5433 116.943 63.1916 115.769L64.6923 113.055L66.0881 113.839L63.0257 119.374Z" fill="#161148"/>
<path d="M57.1488 112.293C55.8102 113.757 53.8996 113.845 52.4732 112.523C51.64 111.751 51.2853 110.904 51.4245 109.947L48.8407 112.773L47.6642 111.682L53.8443 104.919L54.9731 105.968L54.1722 106.844C55.1314 106.545 56.1573 106.806 57.0649 107.649C58.4436 108.927 58.4855 110.827 57.1488 112.293ZM52.9976 108.183L52.7669 108.435C51.9393 109.34 52.0309 110.495 52.9671 111.361C53.9015 112.229 54.9941 112.156 55.9075 111.157C56.8113 110.168 56.7827 109.021 55.8464 108.155C54.9407 107.313 53.7909 107.317 52.9976 108.183Z" fill="#161148"/>
<path d="M49.51 101.774L48.4422 101.106C48.8865 100.339 48.8369 99.3823 48.2134 98.2372C47.7233 97.3362 47.2161 97.0385 46.7622 97.2901C46.3771 97.5034 46.3599 97.8165 46.623 98.5101L47.3324 100.258C47.832 101.544 47.6527 102.454 46.7279 102.967C45.6696 103.553 44.4569 102.936 43.5168 101.215C42.735 99.7819 42.6168 98.487 43.1583 97.609L44.228 98.2027C43.9115 98.9135 43.9649 99.7223 44.5408 100.779C45.0137 101.645 45.4808 101.951 45.9347 101.701C46.2989 101.499 46.3237 101.125 46.0815 100.521L45.3416 98.6887C44.823 97.342 45.0556 96.5313 45.9499 96.0375C47.0425 95.4324 48.2553 95.9472 49.2507 97.7704C50.1088 99.3458 50.185 100.721 49.51 101.774Z" fill="#161148"/>
<path d="M45.6868 95.0463C45.1204 95.2153 44.5656 95.1174 44.1232 94.7331C43.717 94.3796 43.3604 93.8379 42.9104 92.7159L42.0695 90.5335L41.936 90.5738C41.0551 90.837 40.7976 91.5229 41.1027 92.5565C41.404 93.5766 41.9837 94.078 42.7255 93.9627L43.2022 95.5784C41.8445 95.8263 40.6241 94.8023 40.0578 92.8831C39.4228 90.7314 39.9472 89.4769 41.6843 88.9582L43.3967 88.4452C44.3024 88.1743 44.8421 87.9592 45.2921 87.7056L45.7516 89.2617C45.4561 89.4154 45.0652 89.5595 44.6819 89.6882C45.6162 89.8707 46.3656 90.6795 46.768 92.0397C47.2123 93.5439 46.808 94.7101 45.6868 95.0463ZM43.2575 90.1531L42.9314 90.2511L43.7418 92.2837C44.1823 93.3288 44.5732 93.6342 45.1281 93.469C45.6715 93.3057 45.8336 92.7025 45.5762 91.8264C45.1967 90.5373 44.2833 89.8457 43.2575 90.1531Z" fill="#161148"/>
<path d="M38.7897 86.7736L38.6963 85.2175L40.0406 85.1349C38.9919 84.6776 38.4217 83.7997 38.3454 82.5336C38.2367 80.7374 39.1844 79.7249 41.1065 79.6077L44.6495 79.3906L44.7467 80.9986L41.4441 81.2023C40.1627 81.281 39.5696 81.9016 39.6402 83.0658C39.7165 84.3318 40.5669 85.0542 41.8979 84.9716L44.9755 84.7833L45.0728 86.3913L38.7897 86.7736Z" fill="#161148"/>
<path d="M36 76.9569L36.1831 75.1914L37.7848 75.3605L37.6017 77.126L36 76.9569ZM38.6486 77.1587L38.8145 75.5564L45.0728 76.2135L44.9069 77.8157L38.6486 77.1587Z" fill="#161148"/>
<path d="M38.9747 73.8346L39.3065 72.4014L37.7753 72.0403L37.5293 70.3151L39.6745 70.8203L40.1646 68.709L41.2667 68.9683L40.7767 71.0797L43.4729 71.7137C44.27 71.9019 44.7162 71.5888 44.8992 70.7992C44.9851 70.4284 45.0041 70.121 45.0041 69.8463L46.2531 70.1402C46.2836 70.511 46.2417 70.9702 46.1234 71.4774C45.7058 73.2794 44.6857 73.6656 43.3623 73.3543L40.4086 72.6589L40.0768 74.092L38.9747 73.8346Z" fill="#161148"/>
<path d="M38.3225 65.9542L38.9365 64.2905L40.4467 64.8553L39.8327 66.5191L38.3225 65.9542ZM40.8376 66.8149L41.3944 65.3049L47.2942 67.5123L46.7374 69.0223L40.8376 66.8149Z" fill="#161148"/>
<path d="M45.1795 60.0911L43.2307 63.6702L42.2163 63.1093L45.1281 57.7627L46.0548 58.2756L47.5955 63.9584L49.714 60.0681L50.7399 60.6348L47.6394 66.3253L46.6898 65.8008L45.1795 60.0911Z" fill="#161148"/>
<path d="M53.3084 53.169L49.6625 57.5512C50.5225 58.1948 51.5675 57.9854 52.416 56.9652C53.0472 56.2064 53.2264 55.3995 52.927 54.633L54.1798 54.0355C54.6165 55.2477 54.3362 56.533 53.3008 57.776C51.8211 59.5549 49.9829 59.87 48.4002 58.5348C46.7508 57.142 46.7164 55.2285 48.139 53.5187C49.5862 51.7801 51.3196 51.49 52.8641 52.7925L53.3084 53.169ZM51.4435 53.7127C50.6426 53.0365 49.674 53.2939 48.9227 54.1969C48.1313 55.1497 48.1218 56.166 48.8807 56.8922L51.4912 53.7531L51.4435 53.7127Z" fill="#161148"/>
<path d="M55.1695 46.7699C55.3144 46.6488 55.4117 46.5682 55.5337 46.4971L56.491 47.6574C56.3499 47.7439 56.2259 47.8303 56.0791 47.9533C55.5185 48.424 55.2782 48.887 55.2344 49.3692C55.1714 50.0646 55.5318 50.7025 56.0143 51.2865L57.5912 53.198L56.3613 54.2278L52.3417 49.3519L53.4743 48.4028L54.5365 49.69C54.0883 48.6315 54.2695 47.523 55.1695 46.7699Z" fill="#161148"/>
</svg>
