<svg width="40" height="40" viewBox="0 0 40 40" fill="none" xmlns="http://www.w3.org/2000/svg">
<path d="M37.0002 22.9043C37.0002 22.1387 35.4822 21.4493 33.0229 20.9554C29.4102 20.2263 22.9769 17.419 22.2478 13.803C21.7539 11.3602 21.0645 9.82568 20.2989 9.82568C19.5333 9.82568 18.8439 11.347 18.35 13.803C17.6209 17.419 11.1876 20.2263 7.57493 20.9554C5.12891 21.4493 3.59766 22.1387 3.59766 22.9043C3.59766 23.6699 5.11565 24.3593 7.57493 24.8532C11.1876 25.579 17.6209 28.3896 18.35 32.0023C18.8439 34.4483 19.5333 35.9796 20.2989 35.9796C21.0645 35.9796 21.7539 34.4583 22.2478 32.0023C22.9769 28.3896 29.4102 25.579 33.0229 24.8532C35.4822 24.3593 37.0002 23.6666 37.0002 22.9043Z" fill="url(#paint0_linear)"/>
<path d="M6.86191 17.5909L8.8174 31.0506C8.85985 31.3617 9.01347 31.6468 9.24988 31.8534C9.48628 32.0599 9.78947 32.1739 10.1034 32.1742H30.5201C30.8325 32.1742 31.1345 32.0616 31.3707 31.8571C31.6069 31.6526 31.7614 31.3698 31.8061 31.0606L33.7616 17.5909C33.7941 17.3732 33.7791 17.151 33.7176 16.9396C33.6562 16.7283 33.5496 16.5327 33.4054 16.3664C33.2612 16.2001 33.0826 16.0671 32.8821 15.9763C32.6815 15.8856 32.4637 15.8394 32.2436 15.8409H8.3799C8.15978 15.8394 7.94196 15.8856 7.7414 15.9763C7.54084 16.0671 7.36231 16.2001 7.21807 16.3664C7.07383 16.5327 6.96731 16.7283 6.90583 16.9396C6.84435 17.151 6.82936 17.3732 6.86191 17.5909Z" stroke="#161148" stroke-width="1.6" stroke-miterlimit="10" stroke-linecap="round"/>
<path d="M15.0079 15.6323V11.3235C15.0079 9.91709 15.5666 8.56824 16.5611 7.57373C17.5556 6.57922 18.9045 6.02051 20.3109 6.02051C21.7174 6.02051 23.0662 6.57922 24.0607 7.57373C25.0552 8.56824 25.6139 9.91709 25.6139 11.3235V15.6323" stroke="#161148" stroke-width="1.6" stroke-miterlimit="10" stroke-linecap="round"/>
<defs>
<linearGradient id="paint0_linear" x1="20.3122" y1="35.9697" x2="20.3122" y2="9.83894" gradientUnits="userSpaceOnUse">
<stop stop-color="#F3805E"/>
<stop offset="0.44" stop-color="#FCC690"/>
<stop offset="0.61" stop-color="#D4C79A"/>
<stop offset="0.94" stop-color="#7CC9B0"/>
</linearGradient>
</defs>
</svg>
