<svg width="17" height="8" viewBox="0 0 17 8" xmlns="http://www.w3.org/2000/svg">
<g id="Group Copy 3">
<path id="Combined Shape" fill-rule="evenodd" clip-rule="evenodd" d="M16.9888 0.556807C16.8932 0.337334 16.5947 0.0540983 16.0731 0.0742874C15.5272 0.0954195 15.4559 0.208897 15.2655 0.511922C15.2355 0.559808 15.2024 0.612424 15.164 0.670159C15.1678 0.676311 15.1716 0.682469 15.1754 0.688633C13.6962 3.0938 11.2359 4.51582 8.51313 4.51582C5.82239 4.51582 3.38006 3.12738 1.88055 0.774362C1.83008 0.725056 1.80262 0.697799 1.80262 0.697799C1.80262 0.697799 1.74435 0 0.89504 0C0.238556 0 0.110915 0.323155 0.0243312 0.542366C0.0182955 0.557647 0.0124593 0.572423 0.00665732 0.586549C-0.0150472 0.75332 0.0163271 0.925079 0.100677 1.07755C1.86464 4.25979 5.00943 6.15972 8.51313 6.15972C12.0185 6.15972 15.154 4.25855 16.9007 1.07426C16.9889 0.913556 17.0183 0.731638 16.9888 0.556807Z"/>
<path id="Shape Copy" fill-rule="evenodd" clip-rule="evenodd" d="M16.8698 4.77809L15.3599 3.04123C15.9066 2.51263 10.6138 4.95429 8.24473 4.95429C8.19968 4.95429 8.24473 5.19991 8.24473 5.19991C8.24473 5.19991 0.843968 2.54833 1.40582 3.09158L0 4.70257L1.19755 5.68427L2.60337 4.07328C3.12404 4.42568 3.67075 4.72774 4.26953 4.97946L3.48851 6.96803L4.9464 7.49664L5.75345 5.45772C6.35222 5.60875 6.97703 5.70944 7.62787 5.75978V8.00007H9.18989L9.18989 5.75978C9.84074 5.70944 10.4916 5.60875 11.0904 5.45772L11.9234 7.54698L13.3813 7.01837L12.5743 4.95429C13.147 4.70257 13.6937 4.40051 14.2144 4.02293L15.6723 5.75978L16.8698 4.77809Z"/>
</g>
</svg>
