<svg width="120" height="30" viewBox="0 0 120 30" fill="none" xmlns="http://www.w3.org/2000/svg">
<path d="M67.7867 9.58609C67.7867 6.15403 67.8471 2.95867 68.0282 0L58.7928 1.71603V2.54446L59.6982 2.6628C60.3622 2.72198 60.7847 2.95867 61.0262 3.31371C61.2676 3.72792 61.4487 4.31966 61.5694 5.20726C61.6901 6.92329 61.8109 10.8287 61.7505 16.9828C61.7505 23.0776 61.6901 26.9239 61.5694 28.4032C64.8893 29.1133 67.4849 29.4092 69.4165 29.4092C73.0382 29.4092 75.8753 28.4032 77.9276 26.3322C79.9799 24.3203 81.0664 21.4799 81.0664 17.9887C81.0664 15.2076 80.2817 12.8998 78.7123 11.0654C77.1429 9.23105 75.1509 8.34345 72.7968 8.34345C71.2274 8.34345 69.5976 8.75766 67.7867 9.58609ZM67.9678 27.8115C67.8471 25.918 67.7264 20.2373 67.7264 10.9471C68.2696 10.7696 68.994 10.6512 69.8994 10.6512C71.3481 10.6512 72.495 11.3613 73.34 12.8406C74.1851 14.32 74.6076 16.0952 74.6076 18.3438C74.6076 21.1249 74.1247 23.3735 73.159 25.267C72.1932 27.1014 70.9859 28.0482 69.4769 28.0482C68.994 27.9298 68.5111 27.8707 67.9678 27.8115ZM24.1449 0.591734H0V1.7752L1.26761 1.89355C2.2334 2.07107 2.89738 2.42611 3.31992 2.95867C3.74245 3.5504 3.9839 4.49718 4.04427 5.79899C4.52716 12.1897 4.52716 18.1662 4.04427 23.6694C3.92354 24.9712 3.68209 25.9179 3.31992 26.5097C2.89738 27.1014 2.2334 27.4565 1.26761 27.5748L0 27.7523V28.9358H15.5734V27.7523L13.9437 27.634C12.9779 27.5156 12.3139 27.1014 11.8913 26.5689C11.4688 25.9771 11.2274 25.0303 11.167 23.7285C10.9859 21.3616 10.8652 18.6396 10.8652 15.6218L14.1247 15.681C15.8752 15.7401 17.0825 17.0419 17.6861 19.6456H18.8934V10.0003H17.6861C17.0825 12.5448 15.9356 13.8466 14.1247 13.9058L10.8652 13.9649C10.8652 8.63932 10.9859 4.85222 11.167 2.54446H15.9356C19.3159 2.54446 21.6097 4.6747 22.9376 8.93518L24.3863 8.52097L24.1449 0.591734ZM21.3078 18.8171C21.3078 21.8942 22.2133 24.4386 23.9638 26.4505C25.7143 28.4624 28.3099 29.4092 31.5694 29.4092C34.829 29.4092 37.4849 28.4032 39.4165 26.3322C41.3481 24.3203 42.2535 21.7758 42.2535 18.6988C42.2535 15.6218 41.3481 13.0773 39.5976 11.0654C37.8471 9.05353 35.2515 8.10676 31.9919 8.10676C28.7324 8.10676 26.0765 9.1127 24.1449 11.1838C22.2133 13.1957 21.3078 15.7401 21.3078 18.8171ZM34.7686 12.0714C35.493 13.7874 35.7948 16.036 35.7948 18.758C35.7948 25.0303 34.4668 28.1074 31.8712 28.1074C30.5433 28.1074 29.5171 27.2198 28.7928 25.4446C28.0684 23.6694 27.7666 21.4208 27.7666 18.758C27.7666 12.5448 29.0946 9.46774 31.6901 9.46774C33.0181 9.40857 34.0443 10.2962 34.7686 12.0714ZM85.7746 26.4505C87.7666 28.4032 90.3018 29.4092 93.3199 29.4092C95.1911 29.4092 96.8209 29.0541 98.2696 28.2849C99.7183 27.5748 100.865 26.6872 101.65 25.6221L101.046 24.912C99.7183 25.9179 98.2093 26.3913 96.4587 26.3913C94.0443 26.3913 92.173 25.6221 90.9054 24.0244C89.5775 22.4267 88.9738 20.4148 89.0946 17.8112H102.012C102.012 14.9709 101.288 12.6631 99.7787 10.8287C98.2696 9.05353 96.1569 8.16593 93.4406 8.16593C90.0604 8.16593 87.4648 9.23105 85.5936 11.3021C83.7223 13.3732 82.8169 15.9176 82.8169 18.9355C82.8169 22.0125 83.7827 24.4978 85.7746 26.4505ZM90.2414 11.598C90.9054 10.1778 91.7505 9.46774 92.8974 9.46774C94.7082 9.46774 95.6137 11.7163 95.6137 16.2727L89.2153 16.391C89.2757 14.6158 89.5775 13.0181 90.2414 11.598ZM118.249 9.23105C116.62 8.52097 114.567 8.10676 112.093 8.10676C109.557 8.10676 107.565 8.75766 106.056 10.0003C104.547 11.2429 103.763 12.7815 103.763 14.6158C103.763 16.2135 104.245 17.4562 105.151 18.3438C106.056 19.2314 107.505 20.0006 109.376 20.6515C111.066 21.2432 112.274 21.835 112.877 22.3675C113.481 22.9593 113.843 23.6102 113.843 24.4978C113.843 25.3262 113.541 26.0955 112.877 26.6872C112.274 27.3381 111.429 27.634 110.342 27.634C107.686 27.634 105.694 25.7404 104.306 21.9533L103.28 22.2492L103.521 28.1665C105.694 28.995 108.109 29.4092 110.765 29.4092C113.541 29.4092 115.654 28.8174 117.223 27.5748C118.793 26.3913 119.577 24.6753 119.577 22.5451C119.577 21.1249 119.215 19.9414 118.431 19.0538C117.646 18.1662 116.378 17.397 114.567 16.6869C112.575 15.9768 111.187 15.3259 110.463 14.7342C109.738 14.1424 109.376 13.4324 109.376 12.5448C109.376 11.6572 109.618 10.9471 110.161 10.3553C110.704 9.76361 111.368 9.52692 112.213 9.52692C114.628 9.52692 116.378 11.2429 117.465 14.6158L118.491 14.32L118.249 9.23105ZM60.1811 8.69849C59.336 8.28428 58.4306 8.10676 57.4044 8.10676C56.3783 8.10676 55.3521 8.52097 54.2052 9.3494C53.0583 10.1778 52.2133 11.3021 51.5493 12.8406L51.6097 8.10676L42.4346 9.88196V10.7104L43.34 10.7696C44.4869 10.8879 45.1509 11.7755 45.2716 13.3732C45.6338 17.0419 45.6338 20.9474 45.2716 25.0895C45.1509 26.6872 44.4869 27.5156 43.34 27.6932L42.4346 27.8115V28.9358H55.2314V27.8115L53.6016 27.6932C52.4547 27.5748 51.7907 26.6872 51.67 25.0895C51.3078 21.6575 51.2475 17.9887 51.5493 14.2016C51.9115 13.6099 52.6962 13.2548 53.9034 13.1365C55.1107 13.0181 56.499 13.3732 57.9477 14.2016L60.1811 8.69849Z" fill="#161148"/>
</svg>
