<svg width="162" height="28" viewBox="0 0 162 28" fill="none" xmlns="http://www.w3.org/2000/svg">
<path d="M44.7031 6.23827H47.5011V8.04412C48.5344 6.67046 50.0925 5.93391 51.9565 5.93391C55.5336 5.93391 58.0195 8.65487 58.0195 12.5993C58.0195 16.5438 55.5336 19.2749 51.9834 19.2749C51.1172 19.292 50.2593 19.107 49.4801 18.7352C48.701 18.3635 48.0227 17.8155 47.5011 17.1363V24.0574H44.7031V6.23827ZM55.1451 12.5993C55.1451 10.1807 53.589 8.55342 51.258 8.55342C48.927 8.55342 47.371 10.1564 47.371 12.5993C47.371 15.0423 48.925 16.6372 51.2518 16.6372C53.5787 16.6372 55.1451 15.0139 55.1451 12.5993ZM65.8908 5.93391C69.5175 5.93391 71.305 7.58759 71.305 10.8949V18.9584H68.5132V17.2033C67.6328 18.4998 66.1822 19.2749 64.3947 19.2749C61.7764 19.2749 60.0158 17.6212 60.0158 15.2797C60.0158 13.0924 61.5966 11.5666 64.1611 11.3373L67.763 10.9802C68.3065 10.9294 68.5132 10.7509 68.5132 10.3958V10.1158C68.5132 9.04648 67.5812 8.41138 65.9486 8.41138C64.1611 8.41138 62.9688 9.14793 62.6588 10.3958L60.4043 8.99575C61.0779 7.00119 62.9956 5.93391 65.897 5.93391H65.8908ZM64.777 13.5408C63.5846 13.6666 62.9171 14.2774 62.9171 15.1925C62.9171 16.207 63.721 16.8461 65.0415 16.8461C67.0108 16.8461 68.5132 15.4989 68.5132 13.8188V13.0823L64.777 13.5408ZM77.4962 18.9584H74.6382V1.14941H77.4962V18.9584ZM96.6173 5.93391C99.7171 5.93391 101.577 7.81484 101.577 11.4286V18.9584H98.7355V11.6315C98.7355 9.60244 97.8014 8.52907 96.0491 8.52907C93.7945 8.52907 92.7055 10.0549 92.7055 12.9544V18.9584H89.8951V11.6315C89.8951 9.60244 88.9362 8.52907 87.1756 8.52907C84.9458 8.52907 83.8589 10.0549 83.8589 12.9544V18.9584H81.065V6.23827H83.7845V8.22268C84.5883 6.74756 85.9357 5.93391 87.8534 5.93391C89.7711 5.93391 91.2465 6.74553 91.9987 8.36877C93.0093 6.77191 94.5116 5.93391 96.6091 5.93391H96.6173ZM105.142 6.23827H107.942V8.04412C108.975 6.67046 110.531 5.93391 112.397 5.93391C115.972 5.93391 118.46 8.65487 118.46 12.5993C118.46 16.5438 115.964 19.2749 112.42 19.2749C111.554 19.2923 110.696 19.1075 109.916 18.7357C109.137 18.3639 108.459 17.8157 107.938 17.1363V24.0574H105.133L105.142 6.23827ZM115.584 12.5993C115.584 10.1807 114.03 8.55342 111.699 8.55342C109.368 8.55342 107.811 10.1564 107.811 12.5993C107.811 15.0423 109.357 16.6372 111.69 16.6372C114.023 16.6372 115.575 15.0139 115.575 12.5993H115.584ZM126.329 5.93391C129.956 5.93391 131.743 7.58759 131.743 10.8949V18.9584H128.952V17.2033C128.065 18.4998 126.614 19.2749 124.819 19.2749C122.202 19.2749 120.44 17.6212 120.44 15.2797C120.44 13.0924 122.021 11.5666 124.587 11.3373L128.187 10.9802C128.733 10.9294 128.939 10.7509 128.939 10.3958V10.1158C128.939 9.04648 128.007 8.41138 126.375 8.41138C124.587 8.41138 123.395 9.14793 123.083 10.3958L120.83 8.99575C121.512 7.00119 123.426 5.93391 126.329 5.93391ZM125.213 13.5408C124.023 13.6666 123.354 14.2774 123.354 15.1925C123.354 16.207 124.155 16.8461 125.478 16.8461C127.447 16.8461 128.95 15.4989 128.95 13.8188V13.0823L125.213 13.5408ZM137.92 18.9584H135.07V1.14941H137.92V18.9584ZM157.041 5.93391C160.151 5.93391 162.001 7.81484 162.001 11.4286V18.9584H159.166V11.6315C159.166 9.60244 158.234 8.52907 156.479 8.52907C154.227 8.52907 153.138 10.0549 153.138 12.9544V18.9584H150.331V11.6315C150.331 9.60244 149.373 8.52907 147.61 8.52907C145.382 8.52907 144.304 10.0549 144.304 12.9544V18.9584H141.495V6.23827H144.217V8.22268C145.021 6.74756 146.368 5.93391 148.284 5.93391C150.199 5.93391 151.679 6.74553 152.429 8.36877C153.439 6.77191 154.944 5.93391 157.041 5.93391Z" fill="#161148"/>
<path d="M33.9461 6.23641H39.4347C38.263 3.80155 36.0705 2.89254 33.9875 3.1624L37.2649 0.607828C33.6444 -1.13918 30.3711 1.12727 29.7326 4.26012C29.092 1.13335 25.8187 -1.1331 22.1982 0.607828L25.5934 3.24559C23.5083 2.91486 21.2827 3.79547 20.1069 6.23033H25.5169C23.2066 7.10282 21.5906 9.44231 22.4461 12.4514L28.377 7.42544V15.4767C28.3746 16.8566 28.0037 18.2117 27.3013 19.4069C26.599 20.6022 25.5897 21.5956 24.3742 22.2882L19.7184 24.926L15.0605 22.2882C13.8453 21.5953 12.8363 20.6018 12.1339 19.4066C11.4316 18.2115 11.0606 16.8565 11.0578 15.4767V7.43152C12.3514 8.52518 14.4695 10.3229 16.9886 12.4575C17.8358 9.4484 16.2281 7.1089 13.9178 6.23641H19.3278C18.1541 3.80155 15.9285 2.92094 13.8434 3.25168L17.2386 0.607828C13.6181 -1.13918 10.3428 1.12727 9.70421 4.26012C9.0636 1.13335 5.79029 -1.1331 2.16981 0.607828L5.44932 3.16849C3.36424 2.89862 1.1717 3.81576 0 6.2425H5.49065C3.18032 7.11499 1.56433 9.45448 2.41985 12.4636L8.3486 7.43761V15.4889C8.35102 17.3355 8.84699 19.1491 9.78693 20.7486C10.7269 22.348 12.0779 23.6772 13.7049 24.6034L19.7184 28L25.7298 24.5892C27.3568 23.663 28.7078 22.3338 29.6478 20.7344C30.5877 19.1349 31.0837 17.3213 31.0861 15.4747V7.43152L37.0169 12.4575C37.8642 9.4484 36.2565 7.10079 33.9461 6.23641Z" fill="#11B8B1"/>
</svg>
