<svg width="80" height="40" viewBox="0 0 80 40" fill="none" xmlns="http://www.w3.org/2000/svg">
<path fill-rule="evenodd" clip-rule="evenodd" d="M79.6199 19.5596C79.6489 22.7411 78.865 25.8791 77.3397 28.6874L80 31.2954L72.5891 38.5604L70.1188 36.1387C67.1576 38.0729 63.5598 39.144 59.6675 39.1192C49.099 39.1471 40.4339 31.0253 39.905 20.8636C39.1861 31.0253 30.5211 39.144 19.9526 39.1192C17.3299 39.1278 14.7314 38.6278 12.3067 37.6479C9.88201 36.6679 7.67897 35.2275 5.82446 33.4095C3.96995 31.5915 2.5006 29.4319 1.50101 27.0549C0.501414 24.6779 -0.0086746 22.1306 0.000111602 19.5596C-0.0157237 8.81424 8.90905 0.0651987 19.9526 0C23.4857 0.0236135 26.949 0.967567 29.9875 2.73515C33.0261 4.50274 35.5307 7.03042 37.2447 10.0592L27.9336 15.2751C26.2867 12.5181 23.3192 10.6864 19.9526 10.6181C14.8916 10.6864 10.8219 14.6821 10.8315 19.5596C10.8239 20.7359 11.0546 21.902 11.5103 22.9901C11.966 24.0783 12.6376 25.067 13.4861 25.8988C14.3346 26.7305 15.3431 27.3889 16.4531 27.8356C17.5632 28.2823 18.7527 28.5086 19.9526 28.5011C22.8346 28.526 25.4348 27.1754 27.1735 25.1481L21.2827 24.9618V16.7654H39.715C39.716 16.918 39.7215 17.0791 39.7273 17.2454C39.7379 17.5524 39.7491 17.8769 39.733 18.198C40.5437 8.08275 49.1674 0.0646797 59.6675 0C70.711 0.0683034 79.6358 8.81734 79.6199 19.5596ZM66.8881 19.1873L68.7883 20.8639C68.7783 20.6442 68.7824 20.4238 68.7866 20.1956C68.7904 19.9915 68.7943 19.7812 68.7883 19.5599C68.801 14.6823 64.7281 10.6865 59.6672 10.6182C57.2608 10.6581 54.9644 11.613 53.2626 13.2813C51.5609 14.9496 50.5868 17.2008 50.5461 19.5599C50.6063 24.5337 54.6791 28.5264 59.6672 28.5016C60.4316 28.5107 61.1951 28.4483 61.9475 28.3153L59.8572 26.4524L66.8881 19.1873Z" fill="#161148"/>
</svg>
