<svg width="180" height="39" viewBox="0 0 180 39" fill="none" xmlns="http://www.w3.org/2000/svg">
<path d="M45.1934 10.5349H53.0962V32.7438H59.6633V10.5349H67.567V4.91277H45.1934V10.5349ZM68.4574 32.7438L70.424 27.1227H78.4742L80.3681 32.7438H87.1583L77.5848 4.91373H70.4049L61.5562 32.7438H68.4574ZM76.5785 22.0645H71.7855L74.1945 15.3662L76.5785 22.0645ZM94.0596 32.7438V22.7251H98.6247C99.5879 22.7251 100.706 22.5499 101.278 23.3331C101.849 24.1163 101.796 25.4797 101.776 26.889C101.754 28.2984 101.76 29.7518 102.08 30.7887C102.398 31.8256 102.971 32.7438 103.801 32.7438H109.532C108.874 32.052 108.407 31.2006 108.178 30.2736C107.952 29.3411 107.984 28.3252 108.025 27.1993C108.066 26.0743 108.115 24.8401 107.984 23.8281C107.854 22.8142 107.548 22.0233 107.046 21.3971C106.539 20.7704 105.856 20.3091 105.085 20.072C106.295 19.2036 107.31 18.048 107.927 16.8225C108.543 15.5979 108.759 14.3044 108.842 13.0233C108.924 11.7422 108.869 10.4746 108.465 9.27011C108.059 8.06565 107.304 6.92341 106.287 6.14022C105.26 5.352 104.003 4.92129 102.708 4.91373H87.7146V32.7438H94.0596ZM102.645 13.4398C102.622 14.4107 102.139 15.3128 101.344 15.8708C100.547 16.4184 99.4778 16.3016 98.483 16.3016H94.0548V10.802H98.7262C99.6587 10.802 100.663 10.5675 101.428 11.072C102.191 11.5766 102.656 12.5025 102.645 13.4398ZM110.126 15.0186C109.745 17.1346 109.683 19.713 110.027 21.963C110.369 24.2139 111.117 26.1355 112.026 27.6253C112.935 29.1151 114.004 30.1712 115.169 31.0731C116.335 31.975 117.591 32.7218 119.009 33.1412C120.438 33.5544 121.939 33.6575 123.411 33.4437C124.827 33.2331 126.083 32.7189 127.063 32.2737C128.04 31.8276 128.742 31.4503 129.4 31.008L130.514 32.7429H134.634L134.625 17.1394H122.825V22.5834H128.358C128.574 23.5227 128.444 24.551 127.968 25.4069C127.491 26.2619 126.664 26.9446 125.493 27.4271C124.323 27.9087 122.808 28.1893 121.332 27.7421C119.859 27.295 118.427 26.1202 117.483 24.775C116.54 23.4317 116.086 21.917 115.886 20.2405C115.687 18.565 115.744 16.7267 116.145 15.1239C116.546 13.5212 117.293 12.152 118.23 11.1659C119.169 10.1797 120.298 9.57745 121.721 9.3199C123.144 9.06235 124.859 9.15139 126.002 9.78905C127.146 10.4267 127.719 11.612 128.048 12.3655C128.377 13.1191 128.465 13.4398 128.476 13.7692H134.403C134.315 12.5379 133.966 11.3344 133.259 9.95948C132.551 8.58458 131.488 7.04022 129.977 5.9516C128.466 4.86299 126.508 4.23203 124.694 3.99267C123.024 3.7644 121.326 3.87677 119.701 4.32299C118.198 4.73948 116.86 5.42022 115.591 6.34128C114.321 7.26522 113.118 8.42948 112.165 9.83884C111.211 11.2482 110.508 12.9027 110.126 15.0186ZM156.563 27.1227H143.484V20.6656L154.724 20.6427L154.726 15.5452H143.484V10.5359H156.563V4.91373L136.941 4.91756L136.972 32.7438H156.563V27.1227ZM165.414 10.5349V32.7438H171.981V10.5349H179.884V4.91277H157.51V10.5349H165.414Z" fill="#161148"/>
<path d="M23.145 13.8898C22.1626 13.323 21.0281 13.0186 19.8935 13.0186C18.7589 13.0186 17.6243 13.323 16.642 13.8898C15.6543 14.4624 14.8334 15.2833 14.2608 16.271C13.6921 17.2604 13.3917 18.3813 13.3896 19.5225C13.3896 20.658 13.694 21.7926 14.2608 22.7749C14.8286 23.7573 15.6587 24.5883 16.642 25.1552C17.6253 25.722 18.7589 26.0264 19.8935 26.0264C21.0281 26.0264 22.1626 25.7229 23.145 25.1552C24.1273 24.5874 24.9584 23.7573 25.5262 22.7749C26.0951 21.7853 26.3954 20.664 26.3974 19.5225C26.3974 18.3879 26.0939 17.2533 25.5262 16.271C24.9536 15.2833 24.1327 14.4624 23.145 13.8898Z" fill="#161148"/>
<path d="M36.3847 9.99399C34.7197 7.1092 32.2811 4.67058 29.3973 3.00558C26.5134 1.34058 23.1815 0.448242 19.8506 0.448242C16.5196 0.448242 13.1896 1.34058 10.3048 3.00558C7.40579 4.68578 4.99661 7.09496 3.31642 9.99399C1.65046 12.8788 0.758118 16.2097 0.758118 19.5407C0.758118 22.8716 1.65046 26.2026 3.31642 29.0874C4.99604 31.9869 7.40536 34.3962 10.3048 36.0758C13.209 37.7469 16.4999 38.6289 19.8506 38.6341C23.1815 38.6341 26.5125 37.7417 29.3973 36.0758C32.2821 34.4108 34.7197 31.9722 36.3847 29.0874C38.0497 26.2026 38.9421 22.8716 38.9421 19.5407C38.9421 16.2097 38.0497 12.8778 36.3847 9.99399ZM30.7903 25.8541C29.6831 27.7657 28.0947 29.354 26.1831 30.4613C24.2679 31.5625 22.0981 32.1437 19.8889 32.1474C17.6934 32.1474 15.498 31.5595 13.5956 30.4613C11.6941 29.3631 10.0865 27.7556 8.98833 25.8541C7.89014 23.9526 7.30227 21.7562 7.30227 19.5608C7.30227 17.3644 7.89014 15.168 8.98833 13.2665C10.0865 11.3651 11.6941 9.75654 13.5956 8.65931C15.5103 7.55785 17.6799 6.97658 19.8889 6.97324C22.0852 6.97324 24.2807 7.56111 26.1831 8.65931C28.0945 9.76687 29.6828 11.3552 30.7903 13.2665C31.8922 15.1815 32.4738 17.3515 32.4774 19.5608C32.4733 21.7698 31.8917 23.9393 30.7903 25.8541Z" fill="#161148"/>
</svg>
