<svg width="125" height="66" viewBox="0 0 125 66" fill="none" xmlns="http://www.w3.org/2000/svg">
<path d="M38.56 34.1799H29.9729L30.949 19.2544L25.3725 34.1799H17.3984L30.0507 0.443848H38.5354L37.556 15.5742L43.2382 0.443848H51.2129L38.56 34.1799ZM39.5959 34.1799L52.2475 0.443848H60.2216L47.57 34.1799H39.5959Z" fill="#161148"/>
<path d="M16.477 22.5515C5.33407 35.6372 -5.17723 53.0488 4.10735 61.0668C13.104 68.8367 24.3494 64.2363 32.0169 61.1692C39.6845 58.102 124.434 21.2988 124.434 21.2988C125.252 20.8899 125.099 20.3786 124.076 20.6339C123.664 20.737 31.8128 45.6293 31.8128 45.6293C20.1572 48.9012 6.86732 41.7702 16.477 22.5515Z" fill="#161148"/>
<path d="M98.4398 0.443848H74.1087L65.7543 10.5649L69.6114 0.443848H61.5349L48.9844 34.1799H56.9584L62.3168 20.0722L62.6838 34.1799L87.1513 34.1267L89.4804 27.6373H80.1779L83.2344 19.4591H90.9013L93.2603 13.1719H85.5934L88.2217 6.06685H96.2969L98.4398 0.443848ZM70.0834 14.3474L82.14 1.11007L70.5947 31.9305L70.0834 14.3474Z" fill="#161148"/>
</svg>
