<svg width="85" height="34" viewBox="0 0 85 34" fill="none" xmlns="http://www.w3.org/2000/svg">
<path fill-rule="evenodd" clip-rule="evenodd" d="M76.9027 22.8481C77.9673 22.8544 78.5283 21.8628 78.7461 20.616H84.5739C83.8408 29.3142 71.5689 29.384 70.4958 22.4856V26.9769H62.0341V22.4367C61.2956 26.8769 58.7052 27.4883 57.5694 27.4852C56.6164 27.4821 54.2821 26.7145 53.4182 24.3751L53.5011 26.9228C53.5192 28.5039 54.5498 29.5059 55.6442 29.6496V33.3274L45.7704 33.3306V29.6496C46.5991 29.6267 47.9272 28.8289 47.9421 27.054V20.3879C47.6393 22.0638 46.3728 27.4831 40.2996 27.4831C34.2816 27.4831 32.9205 21.7597 32.6623 20.9212C31.5382 27.1561 27.3084 27.4998 25.4511 27.4769C22.1149 27.4352 20.1174 25.1854 20.0685 25.1354C18.0614 23.1377 17.6757 20.1119 17.7565 16.8486C17.7565 16.1924 17.9276 14.9165 17.9881 14.2894C15.8291 16.5632 13.8284 16.2789 11.4537 16.3664L9.45837 16.3622V20.091C9.45625 21.5909 10.0183 22.4867 11.7257 22.4992V26.9832H0V22.5929C1.70744 22.5804 2.29287 21.6034 2.29075 20.1035V6.80777C2.29075 6.49009 2.21106 4.43401 0.006375 4.41838V0H12.6607C15.045 0 16.7407 0.712441 17.8829 1.59362C19.9931 3.22369 20.4149 6.0245 20.5859 8.09829C23.8096 5.34851 31.4479 4.73607 32.7271 12.9625C34.1084 6.69424 38.8206 6.22032 39.9234 6.21511C41.905 6.20886 45.288 7.38168 46.3856 10.5533V6.6432H53.3173V9.15861C53.8273 7.25981 55.5379 6.22865 57.2719 6.21823C58.9443 6.20782 62.3687 8.0285 63.2474 14.9581V5.73077C63.24 4.40068 62.4102 3.71323 61.0523 3.72052L61.0481 0.0406216H69.1146V14.9644C69.8498 8.35347 73.6132 6.23802 76.7815 6.23802C79.9977 6.23802 82.2789 7.99621 83.4466 10.246C84.9426 13.1239 84.8364 16.1664 84.746 18.1381L74.9317 18.1402C74.8967 18.5183 74.9328 19.1526 74.9636 19.7369C75.0465 21.3743 75.5947 22.8554 76.9027 22.8481ZM27.4794 20.6264L32.5911 20.6243C32.3329 19.3744 32.3021 19.1109 32.2734 18.1391L23.6651 18.1402C23.63 18.5183 23.6672 19.1526 23.6969 19.7369C23.7798 21.3743 24.3281 22.8554 25.636 22.8481C26.6996 22.8544 27.2616 21.8742 27.4794 20.6264ZM38.1607 16.8861C38.1607 20.2025 38.7685 22.8721 40.2953 22.893C41.8636 22.9127 42.4299 20.2025 42.4299 16.8861C42.4299 13.5687 41.8221 10.9012 40.2942 10.8802C38.8099 10.8595 38.1607 13.5687 38.1607 16.8861ZM23.6194 13.9603C23.5917 14.5155 23.5811 14.5405 23.6194 14.955H27.4986C27.5368 14.5405 27.5272 14.5155 27.4986 13.9603C27.4157 12.324 26.9078 10.7554 25.6009 10.7626C24.293 10.7554 23.7022 12.324 23.6194 13.9603ZM76.8665 10.8834C75.5586 10.8762 75.0093 12.324 74.9264 13.9603C74.8988 14.5155 74.8882 14.5405 74.9264 14.955H78.8056C78.8439 14.5405 78.8332 14.5155 78.8056 13.9603C78.7227 12.324 78.1734 10.8772 76.8665 10.8834ZM53.6849 19.9046C53.6849 21.5732 54.1036 22.8398 55.2967 22.8398C56.6302 22.8398 57.426 21.0691 57.426 16.9048C57.426 12.3323 56.7067 10.7637 55.454 10.7095C54.2406 10.6574 53.6212 11.6678 53.6849 13.7541V19.9046ZM9.4775 11.3428H11.1222C12.6097 11.3011 13.1304 10.4221 13.1304 8.18995C13.1304 6.15991 12.4026 5.10478 11.1222 5.10478H9.4775V11.3428Z" fill="#161148"/>
</svg>
