<svg width="233" height="32" viewBox="0 0 233 32" fill="none" xmlns="http://www.w3.org/2000/svg">
<g clip-path="url(#clip0)">
<path d="M19.1904 31.1621H10.3993V14.6519H7.18301V9.00562H10.3635V8.68399C10.3635 6.4326 10.5065 4.32417 12.0074 2.46589C13.7227 0.321717 16.5102 -0.0356445 19.1189 -0.0356445L25.6586 0.536137V6.14672L21.6562 5.78936C19.4763 5.61068 18.8687 6.86145 19.0832 9.00562H24.6937V14.6519H19.1904V31.1621Z" fill="#161148"/>
<path d="M36.5939 31.1263H27.9815V8.71969H36.5939V31.1263ZM36.5939 6.61126H27.9815V0.643311H36.5939V6.61126Z" fill="#161148"/>
<path d="M55.3183 31.1263H47.9566L38.5938 1.07212H48.7428L53.0669 16.939L53.9246 13.7585L57.4625 1.03638H64.4668L55.3183 31.1263Z" fill="#161148"/>
<path d="M79.0842 12.5077C79.0842 9.57733 78.298 7.32595 75.5463 7.32595C73.0091 7.32595 71.9727 9.75602 72.0799 12.5077H79.0842ZM88.8759 21.0487C87.3393 28.3388 81.9431 31.698 76.0467 31.698C72.3658 31.698 68.7922 30.7689 65.9691 27.7671C63.2531 24.8724 61.8594 20.7628 61.8594 16.4744C61.8594 12.4005 63.1816 8.00494 65.5402 5.11031C68.0775 1.92978 71.9013 0.4646 75.5106 0.4646C83.8371 0.4646 88.9474 6.93286 88.9474 16.796V18.3684H72.1871C72.0442 21.6204 73.0091 23.9433 75.9752 23.9433C78.1908 23.9433 79.4059 22.8712 79.799 20.2982L88.8759 21.0487Z" fill="#161148"/>
<path d="M111.247 24.3721C112.176 24.3721 113.177 24.4079 113.891 23.8003C114.535 23.3 114.963 22.5138 114.963 21.6919C114.963 20.6913 114.392 19.7621 113.534 19.3333C112.748 18.9402 111.711 18.9402 110.889 18.9402H107.28V24.3721H111.247ZM110.997 12.5434C111.854 12.5434 112.891 12.5792 113.57 11.9717C114.141 11.4356 114.427 10.6852 114.427 10.0062C114.427 7.75478 112.605 7.46889 110.854 7.46889H107.28V12.5434H110.997ZM98.9178 1.03638H113.462C115.714 1.03638 118.037 1.21506 119.895 2.57304C121.896 4.00249 123.075 6.46828 123.075 8.93408C123.075 12.0789 121.074 14.7591 118.037 15.4738V15.5453C121.467 16.1528 123.826 18.7973 123.826 22.3709C123.826 24.9439 122.897 27.8385 120.788 29.3752C118.466 31.0548 115.285 31.0905 112.569 31.0905H98.9178V1.03638Z" fill="#161148"/>
<path d="M147.7 31.0547H125.293L125.329 1.00057L147.7 0.964844V7.89766H134.263V12.2932H145.127V18.9759L134.263 19.0116V23.8717H147.7V31.0547Z" fill="#161148"/>
<path d="M171.284 31.019L150.378 31.0547V0.964844H159.598V23.6573H171.284V31.019Z" fill="#161148"/>
<path d="M209.378 30.9833H201.695L197.55 14.4375H197.478L193.583 31.0191H185.614L177.68 0.964938L186.257 0.929199L190.402 18.297H190.474L194.512 0.929199H201.695L206.055 18.297H206.162L210.272 0.929199H217.276L209.378 30.9833Z" fill="#161148"/>
<path d="M168.927 11.7216C167.069 11.4357 165.818 9.68465 166.104 7.82636C166.39 5.96808 168.105 4.68158 169.963 4.96747C171.821 5.25336 173.072 7.00443 172.786 8.86271C172.5 10.721 170.785 12.0075 168.927 11.7216ZM170.678 0.357502C166.318 -0.321486 162.208 2.68035 161.529 7.11164C160.85 11.5072 163.852 15.6526 168.212 16.3316C172.572 17.0106 176.682 14.0087 177.361 9.57744C178.04 5.18188 175.073 1.03649 170.678 0.357502Z" fill="#161148"/>
<path d="M219.667 3.43068C219.953 3.43068 220.382 3.46641 220.382 3.10905C220.382 2.82316 220.132 2.78742 219.882 2.78742H219.346V3.43068H219.667ZM220.668 4.6457H220.311L219.703 3.68082H219.31V4.6457H218.988V2.57301H219.918C220.096 2.57301 220.275 2.57301 220.454 2.68021C220.597 2.78742 220.704 2.9661 220.704 3.14478C220.704 3.57361 220.418 3.71656 220.025 3.71656L220.668 4.6457ZM218.131 3.57362C218.131 4.43129 218.81 5.07454 219.703 5.07454C220.561 5.07454 221.24 4.43129 221.24 3.57362C221.24 2.75169 220.561 2.07269 219.703 2.07269C218.846 2.10843 218.131 2.75169 218.131 3.57362ZM217.773 3.57362C217.773 2.53727 218.631 1.71533 219.703 1.71533C220.775 1.71533 221.597 2.53727 221.597 3.57362C221.597 4.60997 220.74 5.43191 219.703 5.43191C218.631 5.46764 217.773 4.60997 217.773 3.57362Z" fill="#161148"/>
</g>
<defs>
<clipPath id="clip0">
<rect width="233" height="31.8052" fill="white"/>
</clipPath>
</defs>
</svg>
