<svg width="194" height="42" viewBox="0 0 194 42" fill="none" xmlns="http://www.w3.org/2000/svg">
<g clip-path="url(#clip0)">
<path d="M51.7969 10.6257H58.915V14.7643C60.3084 11.2067 62.9527 10.1489 66.2557 10.1489C66.7751 10.1489 67.1277 10.1945 68.0405 10.2813L68.0347 17.1191C67.1229 16.8601 65.9462 16.829 65.0752 16.8363C61.7169 16.8688 59.3098 18.8816 59.3098 23.1779V32.0343H51.7969V10.6257ZM142.87 10.6257H150.426V32.0348H142.87V10.6257Z" fill="#161148"/>
<path d="M157.555 16.7643H153.844V10.626H157.554V4.2417H164.979V10.626H168.683V16.7643H164.979V32.0336H157.555V16.7643Z" fill="#161148"/>
<path d="M74.1132 16.7643H70.4062V10.626H74.1132V4.2417H81.5417V10.626H85.2463V16.7643H81.5417V32.0336H74.1132V16.7643Z" fill="#161148"/>
<path d="M181.884 21.0858L185.928 10.6255H194.002L180.542 41.5026H172.12L178.155 28.7743L169.938 10.6255H177.893L181.884 21.0858Z" fill="#161148"/>
<path d="M98.4552 21.0858L102.498 10.6255H110.576L97.1122 41.5026H88.688L94.7264 28.7743L86.5078 10.6255H94.4645L98.4552 21.0858Z" fill="#161148"/>
<path d="M150.503 4.71499C150.503 6.94315 148.694 8.75032 146.465 8.75032C145.395 8.75032 144.369 8.3252 143.612 7.56846C142.855 6.81171 142.429 5.78531 142.429 4.71499C142.429 2.48391 144.236 0.674805 146.465 0.674805C148.694 0.674805 150.503 2.48391 150.503 4.71499Z" fill="#161148"/>
<path d="M138.267 21.8537C136.657 24.0591 134.059 25.4933 131.123 25.4933C126.234 25.4933 122.277 21.535 122.277 16.65C122.277 11.7688 126.235 7.81056 131.123 7.81056C134.059 7.81056 136.657 9.24329 138.267 11.4501V1.62369C136.035 0.562638 133.594 0.0130172 131.123 0.0148974C121.93 0.0148974 114.482 7.4628 114.482 16.65C114.482 25.84 121.93 33.2884 131.123 33.2884C133.677 33.2884 136.098 32.7113 138.267 31.6777V21.8537ZM11.2844 0.924302H0V32.0647H7.97463V23.1375L11.2844 23.0628C17.7913 23.0628 23.2114 18.5692 23.0935 11.6626C22.9965 5.41943 18.0513 0.880166 11.2844 0.924302ZM11.4507 15.5621H7.85677L7.84464 8.40228H11.4507C13.5106 8.40228 15.1791 9.7773 15.1791 11.8338C15.1791 12.3234 15.0827 12.8082 14.8954 13.2606C14.708 13.713 14.4334 14.124 14.0872 14.4702C13.741 14.8164 13.3299 15.0911 12.8776 15.2784C12.4252 15.4657 11.9404 15.5621 11.4507 15.5621Z" fill="#161148"/>
<path d="M39.9382 10.6051V12.2823C38.3212 10.9266 36.0474 10.3286 33.8843 10.3286C28.0607 10.3286 23.0781 15.253 23.0781 21.4539C23.0781 27.648 27.6407 32.5283 33.8348 32.5283C35.997 32.5283 39.1263 31.6305 39.9382 30.367V32.0578H47.1068V10.6056L39.9382 10.6051ZM35.2797 26.2095C32.5136 26.2095 30.2709 23.9668 30.2709 21.2007C30.2709 18.4347 32.5136 16.192 35.2797 16.192C38.0457 16.192 40.2875 18.4347 40.2875 21.2007C40.2875 23.9668 38.0457 26.2095 35.2797 26.2095Z" fill="#161148"/>
</g>
<defs>
<clipPath id="clip0">
<rect width="194" height="41.516" fill="white"/>
</clipPath>
</defs>
</svg>
