<svg width="30" height="30" viewBox="0 0 30 30" xmlns="http://www.w3.org/2000/svg">
<path d="M15 30C23.2843 30 30 23.2843 30 15C30 6.71573 23.2843 0 15 0C6.71573 0 0 6.71573 0 15C0 23.2843 6.71573 30 15 30Z"/>
<path d="M24.1879 10.1813C23.5451 10.4664 22.8537 10.6592 22.1285 10.7453C22.8689 10.3017 23.4371 9.59977 23.7053 8.76204C23.0125 9.17302 22.2448 9.47116 21.4285 9.63186C20.7744 8.93531 19.8426 8.5 18.8107 8.5C16.831 8.5 15.2253 10.1057 15.2253 12.0854C15.2253 12.3664 15.2571 12.64 15.3186 12.9026C12.3389 12.7531 9.69678 11.3258 7.92827 9.15591C7.6197 9.68534 7.44269 10.3017 7.44269 10.9586C7.44269 12.2023 8.07613 13.3002 9.03766 13.943C8.45021 13.9245 7.89698 13.7633 7.41381 13.494C7.41354 13.5093 7.41354 13.5245 7.41354 13.5395C7.41354 15.2767 8.64995 16.7257 10.2898 17.0549C9.9893 17.1372 9.67191 17.1808 9.34543 17.1808C9.11387 17.1808 8.88953 17.1586 8.67081 17.1169C9.12697 18.541 10.4508 19.5777 12.0201 19.6068C10.7928 20.5686 9.24703 21.1416 7.56676 21.1416C7.27798 21.1416 6.99187 21.1248 6.71191 21.0914C8.2978 22.109 10.1829 22.7024 12.2076 22.7024C18.8025 22.7024 22.409 17.2391 22.409 12.5007C22.409 12.3453 22.4055 12.1905 22.3986 12.037C23.0997 11.5317 23.7074 10.9004 24.1879 10.1813Z" fill="white"/>
</svg>
