<svg width="40" height="40" viewBox="0 0 40 40" fill="none" xmlns="http://www.w3.org/2000/svg">
<path d="M32.3251 14.7869C31.5318 15.9487 25.4441 22.1165 20.819 24.47C20.5726 24.5971 20.3018 24.6631 20.0275 24.6631C19.7532 24.6631 19.4825 24.5971 19.236 24.47C14.6109 22.1165 8.52324 15.9487 7.72996 14.7869C5.84239 12.0299 1.57145 14.0883 3.48027 18.0818C6.33111 24.089 13.3006 31.1571 17.2316 34.8517C17.9999 35.5904 19.0021 35.9999 20.0417 35.9999C21.0813 35.9999 22.0834 35.5904 22.8518 34.8517C26.7792 31.1496 33.7523 24.089 36.5995 18.0818C38.5013 14.0883 34.2091 12.0299 32.3251 14.7869Z" fill="url(#paint0_linear)"/>
<path d="M20.0372 32.375C27.0443 32.375 32.7247 26.6946 32.7247 19.6875C32.7247 12.6804 27.0443 7 20.0372 7C13.0301 7 7.34967 12.6804 7.34967 19.6875C7.34967 26.6946 13.0301 32.375 20.0372 32.375Z" stroke="#161148" stroke-width="1.6" stroke-miterlimit="10" stroke-linecap="round"/>
<path d="M20.0385 24.2062C23.2098 24.2062 25.7806 21.6354 25.7806 18.4642C25.7806 15.293 23.2098 12.7222 20.0385 12.7222C16.8673 12.7222 14.2965 15.293 14.2965 18.4642C14.2965 21.6354 16.8673 24.2062 20.0385 24.2062Z" stroke="#161148" stroke-width="1.6" stroke-miterlimit="10" stroke-linecap="round"/>
<path d="M11.7711 29.3087C12.5408 27.775 13.7218 26.4855 15.1823 25.5844C16.6427 24.6833 18.3249 24.2061 20.041 24.2061C21.757 24.2061 23.4393 24.6833 24.8997 25.5844C26.3601 26.4855 27.5412 27.775 28.3109 29.3087" stroke="#161148" stroke-width="1.6" stroke-miterlimit="10" stroke-linecap="round"/>
<defs>
<linearGradient id="paint0_linear" x1="20.0257" y1="36.0024" x2="20.0257" y2="13.5242" gradientUnits="userSpaceOnUse">
<stop stop-color="#F3805E"/>
<stop offset="0.44" stop-color="#FCC690"/>
<stop offset="0.61" stop-color="#D4C79A"/>
<stop offset="0.94" stop-color="#7CC9B0"/>
</linearGradient>
</defs>
</svg>
