<?xml version="1.0" encoding="utf-8"?>
<svg version="1.1" xmlns="http://www.w3.org/2000/svg" xmlns:xlink="http://www.w3.org/1999/xlink" x="0px" y="0px"
	 viewBox="-715 402 8 8" style="enable-background:new -715 402 8 8;" xml:space="preserve">
<path id="Combined-Shape" d="M-714.2,402.1L-714.2,402.1l3.2,3.2l3.1-3.1l0.1-0.1c0.2-0.1,0.5-0.1,0.6,0.1
	c0.2,0.2,0.2,0.5,0,0.7l0,0l-3.1,3.1l3.1,3.1c0.2,0.2,0.2,0.5,0,0.7c-0.2,0.2-0.4,0.2-0.6,0.1l-0.1-0.1l-3.1-3.1l-3.1,3.1l-0.1,0.1
	c-0.2,0.1-0.5,0.1-0.6-0.1c-0.2-0.2-0.2-0.5,0-0.7l0,0l3.1-3.1l-3.1-3.1c-0.2-0.2-0.2-0.5,0-0.7C-714.7,402-714.4,402-714.2,402.1z"
	/>
</svg>
