<?xml version="1.0" encoding="utf-8"?>
<!-- Generator: Adobe Illustrator 19.0.0, SVG Export Plug-In . SVG Version: 6.00 Build 0)  -->
<svg version="1.1" id="Layer_1" xmlns="http://www.w3.org/2000/svg" xmlns:xlink="http://www.w3.org/1999/xlink" x="0px" y="0px"
	 viewBox="-709 396 20 20" style="enable-background:new -709 396 20 20;" xml:space="preserve">
<style type="text/css">
	.st0{fill:#1A1A2A;}
</style>
<path id="Combined-Shape" class="st0" d="M-704.4,404l1.4,1.4l-3.1,3.1c-1.3,1.3-1.3,3.3,0,4.6c1.2,1.2,3.2,1.3,4.4,0.1l0.1-0.1
	l3.1-3.1l1.4,1.4l-3.1,3.1c-2,2-5.4,2-7.4,0c-2-2-2-5.2-0.2-7.2l0.2-0.2L-704.4,404z M-696.4,402l1.4,1.4l-6.6,6.6l-1.4-1.4
	L-696.4,402z M-690.5,397.5c2,2,2,5.2,0.2,7.2l-0.2,0.2l-3.1,3.1l-1.4-1.4l3.1-3.1c1.3-1.3,1.3-3.3,0-4.6c-1.2-1.2-3.2-1.3-4.4-0.1
	l-0.1,0.1l-3.1,3.1l-1.4-1.4l3.1-3.1C-695.9,395.5-692.6,395.5-690.5,397.5z"/>
</svg>
