<?xml version="1.0" encoding="utf-8"?>
<!-- Generator: Adobe Illustrator 19.0.0, SVG Export Plug-In . SVG Version: 6.00 Build 0)  -->
<svg version="1.1" id="Layer_1" xmlns="http://www.w3.org/2000/svg" xmlns:xlink="http://www.w3.org/1999/xlink" x="0px" y="0px"
	 viewBox="-709 397 20 18" style="enable-background:new -709 397 20 18;" xml:space="preserve">
<style type="text/css">
	.st0{fill:#1A1A2A;}
</style>
<path id="Combined-Shape" class="st0" d="M-706,410v5h-3v-1h2v-1h-2v-1h2v-1h-2v-1H-706z M-689,412v2h-14v-2H-689z M-706,403.5v3h-2
	v1h2v1h-3v-3h2v-1h-2v-1H-706z M-689,405v2h-14v-2H-689z M-707,397v4h1v1h-3v-1h1v-3h-1v-1H-707z M-689,398v2h-14v-2H-689z"/>
</svg>
