<?xml version="1.0" encoding="utf-8"?>
<!-- Generator: Adobe Illustrator 19.0.0, SVG Export Plug-In . SVG Version: 6.00 Build 0)  -->
<svg version="1.1" id="Layer_1" xmlns="http://www.w3.org/2000/svg" xmlns:xlink="http://www.w3.org/1999/xlink" x="0px" y="0px"
	 viewBox="-709 396 20 20" style="enable-background:new -709 396 20 20;" xml:space="preserve">
<path d="M-693,396c2.2,0,4,1.8,4,4v12c0,2.2-1.8,4-4,4h-12c-2.2,0-4-1.8-4-4v-12c0-2.2,1.8-4,4-4
	H-693z M-693,398h-12c-1.1,0-1.9,0.8-2,1.9l0,0.1v12c0,1.1,0.8,1.9,1.9,2l0.1,0h12c1.1,0,1.9-0.8,2-1.9l0-0.1v-12
	c0-1.1-0.8-1.9-1.9-2L-693,398z M-699,401.5c2.5,0,4.5,2,4.5,4.5s-2,4.5-4.5,4.5s-4.5-2-4.5-4.5S-701.5,401.5-699,401.5z
	 M-699,403.5c-1.4,0-2.5,1.1-2.5,2.5s1.1,2.5,2.5,2.5s2.5-1.1,2.5-2.5S-697.6,403.5-699,403.5z M-694,399.5c0.8,0,1.5,0.7,1.5,1.5
	s-0.7,1.5-1.5,1.5s-1.5-0.7-1.5-1.5S-694.8,399.5-694,399.5z"/>
</svg>
