<?xml version="1.0" encoding="utf-8"?>
<!-- Generator: Adobe Illustrator 19.0.0, SVG Export Plug-In . SVG Version: 6.00 Build 0)  -->
<svg version="1.1" id="Layer_1" xmlns="http://www.w3.org/2000/svg" xmlns:xlink="http://www.w3.org/1999/xlink" x="0px" y="0px"
	 viewBox="-709 397 20 18" style="enable-background:new -709 397 20 18;" xml:space="preserve">
<style type="text/css">
	.st0{fill:#1A1A2A;}
</style>
<path id="Combined-Shape" class="st0" d="M-707,411c1.1,0,2,0.9,2,2s-0.9,2-2,2s-2-0.9-2-2S-708.1,411-707,411z M-689,412v2h-14v-2
	H-689z M-707,404c1.1,0,2,0.9,2,2s-0.9,2-2,2s-2-0.9-2-2S-708.1,404-707,404z M-689,405v2h-14v-2H-689z M-707,397c1.1,0,2,0.9,2,2
	s-0.9,2-2,2s-2-0.9-2-2S-708.1,397-707,397z M-689,398v2h-14v-2H-689z"/>
</svg>
