<?xml version="1.0" encoding="utf-8"?>
<!-- Generator: Adobe Illustrator 19.0.0, SVG Export Plug-In . SVG Version: 6.00 Build 0)  -->
<svg version="1.1" id="Layer_1" xmlns="http://www.w3.org/2000/svg" xmlns:xlink="http://www.w3.org/1999/xlink" x="0px" y="0px"
	 viewBox="-709 396 20 20" style="enable-background:new -709 396 20 20;" xml:space="preserve">
<style type="text/css">
	.st0{fill:#1A1A2A;}
</style>
<path id="Combined-Shape" class="st0" d="M-693,396c2.2,0,4,1.8,4,4v12c0,2.2-1.8,4-4,4h-12c-2.2,0-4-1.8-4-4v-12c0-2.2,1.8-4,4-4
	H-693z M-693,398h-12c-1.1,0-1.9,0.8-2,1.9l0,0.1v12c0,1.1,0.8,1.9,1.9,2l0.1,0h12c1.1,0,1.9-0.8,2-1.9l0-0.1v-12
	c0-1.1-0.8-1.9-1.9-2L-693,398z M-701,403l5.5,3l-5.5,3V403z"/>
</svg>
